<svg xmlns="http://www.w3.org/2000/svg" width="12" height="13.734" viewBox="0 0 12 13.734"><defs><style>.a{fill:#c8ccce;}</style></defs><path class="a" d="M1224.776-1680.254c-.667,0-1.335.007-2,0a.3.3,0,0,0-.334.217c-.161.434-.328.866-.491,1.3s-.335.889-.5,1.334c-.053.144-.135.185-.286.126-.691-.27-1.388-.527-2.078-.8-.37-.146-.358-.152-.213-.521.311-.8.613-1.6.919-2.395.3-.782.6-1.562.9-2.345s.587-1.556.883-2.333c.266-.7.536-1.4.8-2.1q.344-.9.684-1.8c.164-.433.32-.869.491-1.3a.231.231,0,0,1,.172-.117q1.073-.011,2.145,0a.25.25,0,0,1,.179.136c.265.681.518,1.366.776,2.049.237.628.477,1.254.714,1.882s.463,1.234.695,1.851.468,1.245.7,1.867.472,1.244.707,1.865l.813,2.149q.151.4.3.8a.164.164,0,0,1-.1.242l-1.8.676c-.172.065-.344.13-.517.191-.1.037-.17.02-.216-.1-.271-.735-.552-1.467-.83-2.2-.067-.178-.132-.356-.2-.534a.236.236,0,0,0-.258-.145C1226.147-1680.252,1225.462-1680.254,1224.776-1680.254Zm.046-5.845-.055-.007c-.095.239-.193.476-.284.716-.266.7-.527,1.4-.794,2.1-.073.191-.065.213.146.214l1.8,0c.319,0,.337-.027.212-.32,0-.005-.006-.01-.008-.016q-.358-.95-.715-1.9C1225.028-1685.573,1224.924-1685.836,1224.822-1686.1Z" transform="translate(-1218.778 1690.989)"/></svg>