<svg xmlns="http://www.w3.org/2000/svg" width="15.998" height="7.923" viewBox="0 0 15.998 7.923">
  <path id="arrow_simple_1" d="M143,711.011h-11.59l1.293-1.28a.983.983,0,0,0,0-1.4,1.007,1.007,0,0,0-1.415,0l-3,2.971a.977.977,0,0,0-.2.294.928.928,0,0,0-.035.1.967.967,0,0,0-.048.244.936.936,0,0,0-.005.1.971.971,0,0,0,.061.312c0,.009,0,.018.007.027v0a.978.978,0,0,0,.2.29c.009.009.011.021.021.031l3,2.971a1.007,1.007,0,0,0,1.415,0,.983.983,0,0,0,0-1.4l-1.293-1.281H143a.99.99,0,1,0,0-1.981Z" transform="translate(-128.001 -708.04)" fill="#0a599c"/>
</svg>
