<svg xmlns="http://www.w3.org/2000/svg" width="15.828" height="15.914" viewBox="0 0 15.828 15.914"><defs><style>.a{fill:#0a599c;}</style></defs><path class="a" d="M750.149,207.7l-2.581-2.6,0,0a6.9,6.9,0,0,1-.672.319,2.464,2.464,0,0,1-.287.109c-.238.09-.494.169-.751.239h-.01a3.367,3.367,0,0,1-.337.069,5.953,5.953,0,0,1-.87.119,5.37,5.37,0,0,1-.713.04c-5.549,0-7.755-5.371-7.844-5.6a1.048,1.048,0,0,1,0-.736,9.94,9.94,0,0,1,.811-1.492,6.31,6.31,0,0,1,.406-.587c.049-.079.119-.158.178-.238.139-.179.287-.358.455-.537.059-.069.119-.139.188-.209.158-.158.327-.328.5-.487l0,0-2.325-2.337a1,1,0,0,1,0-1.407.984.984,0,0,1,1.4,0l13.85,13.925a1,1,0,0,1,0,1.406.984.984,0,0,1-1.4,0Zm-10.113-10.162a6,6,0,0,0-.515.478c-.069.069-.129.139-.188.209a6.57,6.57,0,0,0-.445.547l-.178.239c-.158.219-.287.418-.4.6-.089.169-.168.308-.228.428a7.119,7.119,0,0,0,4.442,3.81,5.34,5.34,0,0,0,1.148.158,2.053,2.053,0,0,0,.247.01.906.906,0,0,0,.168-.01,5.377,5.377,0,0,0,.911-.079c.108-.03.217-.05.316-.079a3.852,3.852,0,0,0,.742-.249l0,0-.863-.868a2.994,2.994,0,0,1-.753.243,3.041,3.041,0,0,1-.525.049,2.724,2.724,0,0,1-.989-.179,2.958,2.958,0,0,1-1.8-1.81,2.765,2.765,0,0,1-.178-.994,3.07,3.07,0,0,1,.049-.527,3.029,3.029,0,0,1,.242-.757l-1.208-1.215Zm9.091,3.511a8.025,8.025,0,0,0,.634-1.014c-.525-1.034-2.237-3.839-5.59-3.968l-1.83-1.84a7.327,7.327,0,0,1,1.582-.159c5.55,0,7.756,5.371,7.845,5.6a1.047,1.047,0,0,1,0,.736,10.091,10.091,0,0,1-1.217,2.079Z" transform="translate(-736.009 -192.077)"/></svg>