<svg xmlns="http://www.w3.org/2000/svg" xmlns:xlink="http://www.w3.org/1999/xlink" width="120.207" height="24.5" viewBox="0 0 120.207 24.5"><defs><style>.a{fill:#fff;}.b{clip-path:url(#a);}</style><clipPath id="a"><rect class="a" width="120.207" height="24.5"/></clipPath></defs><g transform="translate(-34.289 -140.562)"><g transform="translate(34.289 140.562)"><g class="b"><path class="a" d="M148.441,146.58h-5.724L138,163.02l-.106-16.44H131l-9.375,16.1,4.621-16.1h-5.433l-2.341,10.1h-.1l-1.568-10.1H110.9l-4.151,14.467H98.574l1.118-3.9h7.155l1.033-3.6h-7.155l.966-3.366h7.384l1.033-3.6H82.9l-.463,1.614c-.836-1.263-2.636-2.027-5.423-2.027-4.442,0-7.7,1.732-8.678,5.122a3.578,3.578,0,0,0,.625,3.605,11.674,11.674,0,0,0,3.658,2.355c1.318.673,2.86,1.249,2.426,2.764a2.492,2.492,0,0,1-2.456,1.8c-1.811,0-2-.916-1.705-1.952l.366-1.277-5.305.008-.368,1.283-.086-13.3h-6.9l-3.953,6.79,1.066-3.714h-9.5l1.223-4.263H57.752l1.386-4.831H41.2l-6.91,24.083h7.618l2.914-10.159h9.168l-5.916,10.162H53.83l1.684-3.487H60l-.188,3.487H65.6l-.012-1.753c.718,1.272,2.577,2.168,5.947,2.168,4.753,0,7.909-1.926,8.9-5.388.628-2.187.191-3.388-.881-4.3a30.822,30.822,0,0,0-4.608-2.547c-1-.577-1.6-1.129-1.123-2.211a2.241,2.241,0,0,1,2.348-1.2c1.878.1,1.4,1.539,1.16,2.6h5.271a5.707,5.707,0,0,0,.369-1.828h3.375L82.2,164.648h5.724l4.151-14.467h3.891l-4.151,14.467H111.16l2.367-10.071.079-.048,1.594,10.119h11.037l1.683-3.487h4.489l-.188,3.487h18.029l1.034-3.6H144.29Zm-88.079,11.4H57.045l3.99-8.124H61.1Zm72.405,0H129.45l3.99-8.124h.065Z" transform="translate(-34.289 -140.562)"/><path class="a" d="M197.961,150.351c0-.349-.206-.5-.623-.5h-.673v1.765h.268v-.763h.308l.465.763h.3l-.5-.775a.459.459,0,0,0,.457-.486m-1.028.272v-.548h.364c.186,0,.385.041.385.26,0,.273-.2.289-.429.289Z" transform="translate(-78.592 -143.096)"/><path class="a" d="M196.894,148.964a1.526,1.526,0,1,0,1.543,1.523,1.526,1.526,0,0,0-1.543-1.523m0,2.8a1.274,1.274,0,1,1,1.237-1.276,1.239,1.239,0,0,1-1.237,1.276" transform="translate(-78.23 -142.854)"/></g></g></g></svg>