<svg xmlns="http://www.w3.org/2000/svg" width="16" height="16" viewBox="0 0 16 16"><defs><style>.a{fill:#0a599c;}</style></defs><path class="a" d="M552.187,78H545a1,1,0,1,1,0-2h7.186a2.978,2.978,0,0,1,5.626,0H559a1,1,0,0,1,0,2h-1.187a2.978,2.978,0,0,1-5.626,0ZM554,77a1,1,0,1,0,1-1A1,1,0,0,0,554,77Zm-7.813-4H545a1,1,0,1,1,0-2h1.187a2.978,2.978,0,0,1,5.625,0H559a1,1,0,0,1,0,2h-7a.939.939,0,0,1-.172-.035,2.98,2.98,0,0,1-5.64.035ZM548,72a1,1,0,1,0,1-1A1,1,0,0,0,548,72Zm4.187-4H545a1,1,0,1,1,0-2h7.186a2.978,2.978,0,0,1,5.626,0H559a1,1,0,0,1,0,2h-1.187a2.978,2.978,0,0,1-5.626,0ZM554,67a1,1,0,1,0,1-1A1,1,0,0,0,554,67Z" transform="translate(-544 -64)"/></svg>