<svg xmlns="http://www.w3.org/2000/svg" width="28.085" height="27.505" viewBox="0 0 28.085 27.505"><defs><style>.a{opacity:0.005;}.b{fill:#fff;}</style></defs><g class="a" transform="translate(848.39 2582.771)"><g transform="translate(-848.39 -2582.771)"><path class="b" d="M-564.98-2436.291h-7.376v1.239h7.376a2.551,2.551,0,0,1,2.548,2.548v10.945a2.551,2.551,0,0,1-2.548,2.548h-2.246l-.24.106-4.871,2.162v-2.268h-2a2.551,2.551,0,0,1-2.548-2.548v-2.264h-.019v2.935l-1.218-.54a3.787,3.787,0,0,0,3.785,3.657h.76v2.935l6.613-2.935h1.983a3.787,3.787,0,0,0,3.787-3.787V-2432.5A3.787,3.787,0,0,0-564.98-2436.291Z" transform="translate(589.277 2442.342)"/><path class="b" d="M-544.893-2398.85a2.551,2.551,0,0,1-2.548,2.548h-.741v1.239h.741a3.787,3.787,0,0,0,3.787-3.787v-7.441h-1.239Z" transform="translate(560.579 2413.582)"/><path class="b" d="M-837.227-2565.491h-.019v2.268l-4.871-2.162-.24-.106H-844.6a2.551,2.551,0,0,1-2.548-2.548v-10.945a2.551,2.551,0,0,1,2.548-2.548h9.356a2.551,2.551,0,0,1,2.548,2.548v2.264h1.24v-2.264a3.787,3.787,0,0,0-3.787-3.787H-844.6a3.787,3.787,0,0,0-3.787,3.787v10.945a3.787,3.787,0,0,0,3.787,3.787h1.983l5.4,2.395c0-.043,0-.086,0-.13Z" transform="translate(848.39 2582.771)"/><rect class="b" width="1.239" height="1.239" transform="translate(15.686 6.052)"/><path class="b" d="M-576.961-2163.27h.019v-1.24h-1.239v3.5c0,.044,0,.087,0,.13l1.218.54Z" transform="translate(589.34 2181.79)"/></g><path class="b" d="M-452.872-2299.641c-.385,0-.77,0-1.156,0a.172.172,0,0,0-.193.125c-.093.251-.189.5-.283.75s-.193.513-.289.77c-.031.083-.078.106-.165.072-.4-.156-.8-.3-1.2-.461-.214-.084-.206-.088-.123-.3.18-.459.354-.922.53-1.382s.347-.9.519-1.353.339-.9.509-1.346c.154-.4.31-.806.464-1.209q.2-.519.4-1.037c.094-.25.185-.5.284-.75a.133.133,0,0,1,.1-.067q.619-.007,1.238,0a.144.144,0,0,1,.1.079c.153.393.3.788.448,1.182.137.362.275.724.412,1.086s.267.712.4,1.068.27.718.405,1.077.272.718.408,1.076l.469,1.24c.058.154.116.308.175.462a.094.094,0,0,1-.06.14l-1.04.39c-.1.037-.2.074-.3.11-.06.021-.1.011-.125-.06-.157-.424-.319-.846-.479-1.269-.039-.1-.076-.206-.115-.308a.136.136,0,0,0-.149-.084C-452.081-2299.64-452.476-2299.641-452.872-2299.641Zm.026-3.373-.032,0c-.055.138-.111.275-.164.413-.153.4-.3.808-.458,1.211-.042.11-.037.123.084.123l1.042,0c.184,0,.195-.015.122-.185l0-.009q-.206-.548-.413-1.1C-452.727-2302.711-452.787-2302.862-452.846-2303.014Z" transform="translate(-375.556 -265.735)"/><path class="b" d="M-733.495-2449.025l-1.012-1.018a3.826,3.826,0,0,0,.595-2.054,3.845,3.845,0,0,0-3.845-3.845,3.845,3.845,0,0,0-3.845,3.845,3.845,3.845,0,0,0,3.845,3.844,3.826,3.826,0,0,0,2.107-.628l1.018,1.009Zm-4.262-.808a2.264,2.264,0,0,1-2.263-2.263,2.263,2.263,0,0,1,2.263-2.264,2.263,2.263,0,0,1,2.263,2.264,2.255,2.255,0,0,1-.179.883l-.923-.928-1.214,1.121.992.983A2.253,2.253,0,0,1-737.757-2449.833Z" transform="translate(-102.388 -121.929)"/></g></svg>