<svg xmlns="http://www.w3.org/2000/svg" width="25.933" height="24.62" viewBox="0 0 25.933 24.62"><defs><style>.a{fill:#fff;}.b{fill:#0a599c;}</style></defs><g transform="translate(28.805 2544.703)"><g transform="translate(-28.805 -2544.703)"><path class="a" d="M253.38-2398.223h-7.421v7.487a3.81,3.81,0,0,1-3.811,3.811H241.4v2.278a2.567,2.567,0,0,0,2.564,2.564h2.012v2.282l4.9-2.175.242-.107h2.26a2.567,2.567,0,0,0,2.564-2.564v-11.012A2.567,2.567,0,0,0,253.38-2398.223Z" transform="translate(-230.011 2404.421)"/><path class="a" d="M-16.613-2528.274a2.613,2.613,0,0,0,2.61-2.61v-11.21a2.613,2.613,0,0,0-2.61-2.609H-26.2a2.613,2.613,0,0,0-2.61,2.609v11.21a2.613,2.613,0,0,0,2.61,2.61h2.3l.246.109,4.989,2.214v-2.323h2.048Z" transform="translate(28.805 2544.703)"/></g><path class="b" d="M56.285-2448.857l-1.037-1.042a3.919,3.919,0,0,0,.609-2.1,3.938,3.938,0,0,0-3.938-3.938A3.938,3.938,0,0,0,47.982-2452a3.938,3.938,0,0,0,3.938,3.938,3.92,3.92,0,0,0,2.158-.644l1.043,1.033Zm-4.365-.828A2.318,2.318,0,0,1,49.6-2452a2.318,2.318,0,0,1,2.318-2.318A2.318,2.318,0,0,1,54.238-2452a2.311,2.311,0,0,1-.183.9l-.946-.951-1.244,1.148,1.016,1.007A2.311,2.311,0,0,1,51.92-2449.686Z" transform="translate(-73.538 -85.005)"/><path class="b" d="M338.846-2299.491c-.395,0-.789,0-1.184,0a.176.176,0,0,0-.2.128c-.095.257-.194.512-.29.769s-.2.525-.3.789c-.032.085-.08.109-.169.074-.409-.16-.82-.312-1.228-.473-.219-.086-.211-.089-.126-.308.184-.47.362-.943.543-1.415s.356-.924.532-1.386.347-.919.522-1.379c.157-.413.317-.825.475-1.239q.2-.531.4-1.062c.1-.256.189-.514.29-.769a.138.138,0,0,1,.1-.069q.634-.006,1.268,0a.149.149,0,0,1,.106.081c.156.4.306.807.458,1.211.14.37.282.741.422,1.112s.274.729.411,1.094.276.736.415,1.1.279.735.418,1.1l.48,1.27q.089.236.179.473a.1.1,0,0,1-.061.143l-1.065.4c-.1.039-.2.076-.306.113-.062.022-.1.012-.128-.061-.16-.435-.326-.867-.49-1.3-.04-.105-.078-.211-.118-.315a.14.14,0,0,0-.153-.086C339.657-2299.49,339.251-2299.491,338.846-2299.491Zm.027-3.455-.033,0c-.056.141-.114.281-.168.423-.157.413-.312.827-.469,1.24-.043.113-.038.126.086.126l1.067,0c.189,0,.2-.016.125-.189l0-.01q-.211-.561-.423-1.123C338.995-2302.635,338.934-2302.79,338.873-2302.945Z" transform="translate(-348.699 -228.759)"/></g></svg>