<svg xmlns="http://www.w3.org/2000/svg" width="30" height="30" viewBox="0 0 30 30"><defs><style>.a,.d{fill:#fff;}.a,.b{opacity:0;}.c{fill:#7e7e7e;}.e{opacity:0.8;}</style></defs><g transform="translate(-245 -16)"><rect class="a" width="30" height="30" transform="translate(245 16)"/><g class="b" transform="translate(275.791 2562.703)"><g transform="translate(-28.805 -2544.703)"><path class="c" d="M253.38-2398.223h-7.421v7.487a3.81,3.81,0,0,1-3.811,3.811H241.4v2.278a2.567,2.567,0,0,0,2.564,2.564h2.012v2.282l4.9-2.175.242-.107h2.26a2.567,2.567,0,0,0,2.564-2.564v-11.012A2.567,2.567,0,0,0,253.38-2398.223Z" transform="translate(-230.011 2404.421)"/><path class="c" d="M-16.613-2528.274a2.613,2.613,0,0,0,2.61-2.61v-11.21a2.613,2.613,0,0,0-2.61-2.609H-26.2a2.613,2.613,0,0,0-2.61,2.609v11.21a2.613,2.613,0,0,0,2.61,2.61h2.3l.246.109,4.989,2.214v-2.323h2.048Z" transform="translate(28.805 2544.703)"/></g><path class="d" d="M56.285-2448.857l-1.037-1.042a3.919,3.919,0,0,0,.609-2.1,3.938,3.938,0,0,0-3.938-3.938A3.938,3.938,0,0,0,47.982-2452a3.938,3.938,0,0,0,3.938,3.938,3.92,3.92,0,0,0,2.158-.644l1.043,1.033Zm-4.365-.828A2.318,2.318,0,0,1,49.6-2452a2.318,2.318,0,0,1,2.318-2.318A2.318,2.318,0,0,1,54.238-2452a2.311,2.311,0,0,1-.183.9l-.946-.951-1.244,1.148,1.016,1.007A2.311,2.311,0,0,1,51.92-2449.686Z" transform="translate(-73.538 -85.005)"/><path class="d" d="M338.846-2299.491c-.395,0-.789,0-1.184,0a.176.176,0,0,0-.2.128c-.095.257-.194.512-.29.769s-.2.525-.3.789c-.032.085-.08.109-.169.074-.409-.16-.82-.312-1.228-.473-.219-.086-.211-.089-.126-.308.184-.47.362-.943.543-1.415s.356-.924.532-1.386.347-.919.522-1.379c.157-.413.317-.825.475-1.239q.2-.531.4-1.062c.1-.256.189-.514.29-.769a.138.138,0,0,1,.1-.069q.634-.006,1.268,0a.149.149,0,0,1,.106.081c.156.4.306.807.458,1.211.14.37.282.741.422,1.112s.274.729.411,1.094.276.736.415,1.1.279.735.418,1.1l.48,1.27q.089.236.179.473a.1.1,0,0,1-.061.143l-1.065.4c-.1.039-.2.076-.306.113-.062.022-.1.012-.128-.061-.16-.435-.326-.867-.49-1.3-.04-.105-.078-.211-.118-.315a.14.14,0,0,0-.153-.086C339.657-2299.49,339.251-2299.491,338.846-2299.491Zm.027-3.455-.033,0c-.056.141-.114.281-.168.423-.157.413-.312.827-.469,1.24-.043.113-.038.126.086.126l1.067,0c.189,0,.2-.016.125-.189l0-.01q-.211-.561-.423-1.123C338.995-2302.635,338.934-2302.79,338.873-2302.945Z" transform="translate(-348.699 -228.759)"/></g><g class="e" transform="translate(1094.39 2599.771)"><g transform="translate(-848.39 -2582.771)"><path class="d" d="M-564.98-2436.291h-7.376v1.239h7.376a2.551,2.551,0,0,1,2.548,2.548v10.945a2.551,2.551,0,0,1-2.548,2.548h-2.246l-.24.106-4.871,2.162v-2.268h-2a2.551,2.551,0,0,1-2.548-2.548v-2.264h-.019v2.935l-1.218-.54a3.787,3.787,0,0,0,3.785,3.657h.76v2.935l6.613-2.935h1.983a3.787,3.787,0,0,0,3.787-3.787V-2432.5A3.787,3.787,0,0,0-564.98-2436.291Z" transform="translate(589.277 2442.342)"/><path class="d" d="M-544.893-2398.85a2.551,2.551,0,0,1-2.548,2.548h-.741v1.239h.741a3.787,3.787,0,0,0,3.787-3.787v-7.441h-1.239Z" transform="translate(560.579 2413.582)"/><path class="d" d="M-837.227-2565.491h-.019v2.268l-4.871-2.162-.24-.106H-844.6a2.551,2.551,0,0,1-2.548-2.548v-10.945a2.551,2.551,0,0,1,2.548-2.548h9.356a2.551,2.551,0,0,1,2.548,2.548v2.264h1.24v-2.264a3.787,3.787,0,0,0-3.787-3.787H-844.6a3.787,3.787,0,0,0-3.787,3.787v10.945a3.787,3.787,0,0,0,3.787,3.787h1.983l5.4,2.395c0-.043,0-.086,0-.13Z" transform="translate(848.39 2582.771)"/><rect class="d" width="1.239" height="1.239" transform="translate(15.686 6.052)"/><path class="d" d="M-576.961-2163.27h.019v-1.24h-1.239v3.5c0,.044,0,.087,0,.13l1.218.54Z" transform="translate(589.34 2181.79)"/></g><path class="d" d="M-452.872-2299.641c-.385,0-.77,0-1.156,0a.172.172,0,0,0-.193.125c-.093.251-.189.5-.283.75s-.193.513-.289.77c-.031.083-.078.106-.165.072-.4-.156-.8-.3-1.2-.461-.214-.084-.206-.088-.123-.3.18-.459.354-.922.53-1.382s.347-.9.519-1.353.339-.9.509-1.346c.154-.4.31-.806.464-1.209q.2-.519.4-1.037c.094-.25.185-.5.284-.75a.133.133,0,0,1,.1-.067q.619-.007,1.238,0a.144.144,0,0,1,.1.079c.153.393.3.788.448,1.182.137.362.275.724.412,1.086s.267.712.4,1.068.27.718.405,1.077.272.718.408,1.076l.469,1.24c.058.154.116.308.175.462a.094.094,0,0,1-.06.14l-1.04.39c-.1.037-.2.074-.3.11-.06.021-.1.011-.125-.06-.157-.424-.319-.846-.479-1.269-.039-.1-.076-.206-.115-.308a.136.136,0,0,0-.149-.084C-452.081-2299.64-452.476-2299.641-452.872-2299.641Zm.026-3.373-.032,0c-.055.138-.111.275-.164.413-.153.4-.3.808-.458,1.211-.042.11-.037.123.084.123l1.042,0c.184,0,.195-.015.122-.185l0-.009q-.206-.548-.413-1.1C-452.727-2302.711-452.787-2302.862-452.846-2303.014Z" transform="translate(-375.556 -265.735)"/><path class="d" d="M-733.495-2449.025l-1.012-1.018a3.826,3.826,0,0,0,.595-2.054,3.845,3.845,0,0,0-3.845-3.845,3.845,3.845,0,0,0-3.845,3.845,3.845,3.845,0,0,0,3.845,3.844,3.826,3.826,0,0,0,2.107-.628l1.018,1.009Zm-4.262-.808a2.264,2.264,0,0,1-2.263-2.263,2.263,2.263,0,0,1,2.263-2.264,2.263,2.263,0,0,1,2.263,2.264,2.255,2.255,0,0,1-.179.883l-.923-.928-1.214,1.121.992.983A2.253,2.253,0,0,1-737.757-2449.833Z" transform="translate(-102.388 -121.929)"/></g></g></svg>