<svg xmlns="http://www.w3.org/2000/svg" width="14.971" height="16.006" viewBox="0 0 14.971 16.006"><defs><style>.a{fill:#c8ccce;}</style></defs><path class="a" d="M356.25,336a4.178,4.178,0,0,1-2.939-1.372,4.649,4.649,0,0,1-.08-6.334l1.872-2a.894.894,0,0,1,1.324,0,1.049,1.049,0,0,1,0,1.416l-1.872,2a2.543,2.543,0,0,0,.08,3.5,2.365,2.365,0,0,0,1.66.787,2.117,2.117,0,0,0,1.616-.7l1.873-2a.894.894,0,0,1,1.324,0,1.051,1.051,0,0,1,0,1.416l-1.873,2A3.922,3.922,0,0,1,356.35,336Zm.725-5.291a1.048,1.048,0,0,1,0-1.415l3.745-4a.894.894,0,0,1,1.324,0,1.051,1.051,0,0,1,0,1.416l-3.745,4a.893.893,0,0,1-1.324,0Zm5.618-1a1.048,1.048,0,0,1,0-1.415l1.872-2a2.542,2.542,0,0,0-.08-3.5,2.169,2.169,0,0,0-3.277-.086l-1.873,2a.893.893,0,0,1-1.324,0,1.05,1.05,0,0,1,0-1.415l1.873-2a3.96,3.96,0,0,1,5.925.086,4.649,4.649,0,0,1,.08,6.334l-1.873,2a.892.892,0,0,1-1.323,0Z" transform="translate(-352.024 -319.996)"/></svg>