<svg xmlns="http://www.w3.org/2000/svg" width="28.085" height="27.497" viewBox="0 0 28.085 27.497"><defs><style>.a{opacity:0.8;}.b{fill:#fff;}</style></defs><g class="a" transform="translate(774.979 1749.243)"><g transform="translate(-774.979 -1749.243)"><path class="b" d="M-491.574-1602.763h-7.373v1.239h7.373a2.55,2.55,0,0,1,2.547,2.547v10.941a2.55,2.55,0,0,1-2.547,2.547h-2.245l-.24.106-4.869,2.161v-2.267h-2a2.55,2.55,0,0,1-2.547-2.547v-2.264h-.019v2.934l-1.217-.54a3.786,3.786,0,0,0,3.784,3.656h.76v2.934l6.611-2.934h1.982a3.786,3.786,0,0,0,3.786-3.786v-10.941A3.786,3.786,0,0,0-491.574-1602.763Z" transform="translate(515.872 1608.813)"/><path class="b" d="M-471.483-1565.324a2.55,2.55,0,0,1-2.547,2.547h-.74v1.239h.74a3.786,3.786,0,0,0,3.786-3.786v-7.438h-1.239Z" transform="translate(487.169 1580.052)"/><path class="b" d="M-763.819-1731.969h-.019v2.268l-4.869-2.161-.24-.107h-2.245a2.55,2.55,0,0,1-2.547-2.547v-10.941a2.55,2.55,0,0,1,2.547-2.547h9.353a2.55,2.55,0,0,1,2.547,2.547v2.264h1.239v-2.264a3.786,3.786,0,0,0-3.786-3.786h-9.353a3.786,3.786,0,0,0-3.786,3.786v10.941a3.786,3.786,0,0,0,3.786,3.786h1.982l5.393,2.394c0-.043,0-.087,0-.13Z" transform="translate(774.979 1749.243)"/><rect class="b" width="1.239" height="1.239" transform="translate(15.686 6.05)"/><path class="b" d="M-503.55-1329.743h.019v-1.239h-1.239v3.5c0,.044,0,.087,0,.13l1.217.54Z" transform="translate(515.93 1348.256)"/></g><path class="b" d="M-639.637-1589.375c.213-.209.422-.411.628-.616.338-.336.673-.677,1.013-1.01.076-.074.071-.119,0-.191q-.775-.769-1.544-1.544c-.029-.029-.055-.059-.092-.1l.431-.433.611-.612c.1-.1.106-.1.205,0l1.522,1.523c.109.109.109.109.216,0l1.521-1.522c.1-.1.112-.1.213,0l.956.955c.089.089.089.1,0,.189l-1.539,1.539c-.1.1-.1.1,0,.2l1.537,1.538c.091.091.091.1,0,.189-.323.323-.648.645-.968.97-.068.069-.111.062-.176,0-.518-.521-1.04-1.037-1.558-1.559-.071-.071-.112-.069-.181,0q-.766.773-1.538,1.54c-.105.105-.109.105-.212,0l-.953-.956C-639.574-1589.3-639.6-1589.33-639.637-1589.375Z" transform="translate(-129.752 -148.877)"/><path class="b" d="M-365.6-1430.087l1.143,1.161-4.033,4.023-2.354-2.432,1.213-1.175,1.121,1.119" transform="translate(-387.44 -305.975)"/></g></svg>