<svg xmlns="http://www.w3.org/2000/svg" width="25.965" height="24.624" viewBox="0 0 25.965 24.624"><defs><style>.a{fill:#fff;}.b{fill:#0d4b80;}</style></defs><g transform="translate(-37.38 1711.175)"><g transform="translate(37.38 -1711.175)"><path class="a" d="M319.6-1564.695h-7.443v7.509a3.822,3.822,0,0,1-3.822,3.822h-.747v2.285a2.574,2.574,0,0,0,2.571,2.571h2.017v2.289l4.915-2.181.242-.108H319.6a2.574,2.574,0,0,0,2.571-2.571v-11.044A2.574,2.574,0,0,0,319.6-1564.695Z" transform="translate(-296.207 1570.844)"/><path class="a" d="M49.662-1694.625a2.632,2.632,0,0,0,2.629-2.629v-11.292a2.632,2.632,0,0,0-2.629-2.629H40.009a2.632,2.632,0,0,0-2.629,2.629v11.292a2.632,2.632,0,0,0,2.629,2.629h2.317l.248.11,5.025,2.23v-2.34h2.063Z" transform="translate(-37.38 1711.175)"/></g><path class="b" d="M142.722-1589.229c.22-.215.436-.424.649-.636.349-.347.694-.7,1.046-1.043.078-.076.073-.123,0-.2q-.8-.793-1.593-1.593c-.03-.03-.057-.061-.095-.1l.444-.447.63-.632c.1-.1.11-.1.212,0l1.571,1.572c.112.113.112.113.223,0l1.57-1.571c.108-.108.115-.108.22,0l.987.986c.092.092.092.1,0,.2l-1.588,1.589c-.1.1-.1.1,0,.21l1.586,1.588c.094.094.094.1,0,.195-.333.334-.669.665-1,1-.07.071-.115.064-.182,0-.535-.538-1.074-1.071-1.608-1.609-.073-.074-.116-.071-.187,0q-.791.8-1.587,1.59c-.109.109-.113.109-.219,0l-.984-.986C142.787-1589.148,142.762-1589.182,142.722-1589.229Z" transform="translate(-100.852 -112.225)"/><path class="b" d="M414.621-1430.088l1.18,1.2-4.162,4.152-2.43-2.51,1.252-1.212,1.157,1.154" transform="translate(-355.979 -269.106)"/></g></svg>