<svg xmlns="http://www.w3.org/2000/svg" width="12" height="12" viewBox="0 0 12 12"><defs><style>.a{fill:#c8ccce;}</style></defs><path class="a" d="M825.072-1682.448l-1.5-1.513a5.71,5.71,0,0,0,.88-3.055,5.7,5.7,0,0,0-5.691-5.717,5.7,5.7,0,0,0-5.691,5.717,5.7,5.7,0,0,0,5.691,5.717,5.647,5.647,0,0,0,3.119-.934l1.507,1.5Zm-6.309-1.2a3.358,3.358,0,0,1-3.35-3.366,3.358,3.358,0,0,1,3.35-3.365,3.358,3.358,0,0,1,3.35,3.365,3.369,3.369,0,0,1-.265,1.313l-1.367-1.38-1.8,1.667,1.469,1.462A3.321,3.321,0,0,1,818.763-1683.651Z" transform="translate(-813.072 1692.734)"/></svg>