<svg xmlns="http://www.w3.org/2000/svg" width="15.987" height="15.739" viewBox="0 0 15.987 15.739"><defs><style>.a{fill:#0a599c;}</style></defs><path class="a" d="M322,717.2V718.9a1,1,0,0,1-2,0v-3.934a.991.991,0,0,1,1-.984h4a.984.984,0,1,1,0,1.967h-1.471a5.893,5.893,0,0,0,3.18,1.829,6,6,0,0,0,7.224-4.918,1,1,0,0,1,1.978.275A8.026,8.026,0,0,1,322,717.2Zm-1.919-6.3a7.975,7.975,0,0,1,6.815-6.691,8.06,8.06,0,0,1,7.094,2.606v-1.691a1,1,0,0,1,2,0v3.934a.983.983,0,0,1-.33.728,1,1,0,0,1-.669.256h-4a.984.984,0,1,1,0-1.967h1.459a6.018,6.018,0,0,0-10.391,3.1,1,1,0,0,1-1.979-.272Z" transform="translate(-320.004 -704.14)"/></svg>