<svg xmlns="http://www.w3.org/2000/svg" width="16" height="21.214" viewBox="0 0 16 21.214"><defs><style>.a{opacity:0.8;}.b{fill:#fff;}</style></defs><g class="a" transform="translate(-1223.868 2622.898)"><path class="b" d="M1236.572-2621.7a2.106,2.106,0,0,1,2.1,2.108v14.593a2.106,2.106,0,0,1-2.1,2.108h-9.408a2.106,2.106,0,0,1-2.1-2.108v-14.593a2.106,2.106,0,0,1,2.1-2.108h9.408m0-1.2h-9.408a3.3,3.3,0,0,0-3.3,3.311v14.593a3.3,3.3,0,0,0,3.3,3.311h9.408a3.3,3.3,0,0,0,3.3-3.311v-14.593a3.3,3.3,0,0,0-3.3-3.311Z" transform="translate(0 0)"/><path class="b" d="M1302.2-2485.412a5.081,5.081,0,0,0-5.075,5.093,5.073,5.073,0,0,0,5.048,5.1,5.082,5.082,0,0,0,5.078-5.093A5.088,5.088,0,0,0,1302.2-2485.412Zm-.029,8.88a3.786,3.786,0,0,1-3.742-3.786,3.784,3.784,0,0,1,3.757-3.78h.038v3.775l3.554-1.1a3.76,3.76,0,0,1,.166,1.106A3.788,3.788,0,0,1,1302.174-2476.532Z" transform="translate(-70.323 -131.975)"/></g></svg>