<svg xmlns="http://www.w3.org/2000/svg" width="16" height="21.214" viewBox="0 0 16 21.214"><defs><style>.a{fill:#fff;}</style></defs><g transform="translate(-1725.612 2622.898)"><path class="a" d="M1835.474-2452.643h-.038a3.8,3.8,0,0,0-3.783,3.781,3.8,3.8,0,0,0,3.767,3.786,3.8,3.8,0,0,0,3.8-3.786,3.731,3.731,0,0,0-.167-1.106l-3.578,1.1Z" transform="translate(-101.825 -163.43)"/><path class="a" d="M1738.316-2622.9h-9.408a3.3,3.3,0,0,0-3.3,3.311v14.593a3.3,3.3,0,0,0,3.3,3.311h9.408a3.3,3.3,0,0,0,3.3-3.311v-14.593A3.3,3.3,0,0,0,1738.316-2622.9Zm-4.719,15.7a5.079,5.079,0,0,1-5.062-5.1,5.087,5.087,0,0,1,5.088-5.093,5.094,5.094,0,0,1,5.065,5.1A5.088,5.088,0,0,1,1733.6-2607.2Z" transform="translate(0 0)"/></g></svg>