<svg xmlns="http://www.w3.org/2000/svg" width="21.015" height="21" viewBox="0 0 21.015 21">
  <g id="Group_468" data-name="Group 468" transform="translate(-19.992 -19)">
    <path id="Setting_onHover_state" data-name="Setting onHover state" d="M690.987,74.5l-.937-.521.937-.475a2.45,2.45,0,0,0,.952-3.41l-1.3-2.175a2.585,2.585,0,0,0-1.578-1.169,2.687,2.687,0,0,0-1.974.25l-.933.52.026-1.018a2.55,2.55,0,0,0-2.6-2.5h-2.6a2.55,2.55,0,0,0-2.6,2.5v1.032L677.481,67a2.687,2.687,0,0,0-1.974-.25,2.585,2.585,0,0,0-1.578,1.169l-1.3,2.175a2.45,2.45,0,0,0,.952,3.41l.919.511-.919.485a2.45,2.45,0,0,0-.952,3.41l1.3,2.175a2.585,2.585,0,0,0,1.578,1.169,2.687,2.687,0,0,0,1.974-.25l.933-.52-.026,1.018a2.55,2.55,0,0,0,2.6,2.5h2.6a2.55,2.55,0,0,0,2.6-2.5V80.467l.907.534a2.687,2.687,0,0,0,1.974.25,2.585,2.585,0,0,0,1.578-1.169l1.3-2.175A2.45,2.45,0,0,0,690.987,74.5Z" transform="translate(712.784 103.5) rotate(180)" fill="#fff" stroke="#0a599c" stroke-width="1"/>
    <ellipse id="Op_component_2" data-name="Op component 2" cx="2.592" cy="2.5" rx="2.592" ry="2.5" transform="translate(33.09 32) rotate(180)" fill="#0a599c" stroke="#0a599c" stroke-width="1"/>
  </g>
</svg>
