<svg xmlns="http://www.w3.org/2000/svg" width="28.694" height="28.699" viewBox="0 0 28.694 28.699"><defs><style>.a{fill:#fff;stroke:#0a599c;}</style></defs><g transform="translate(-16.153 -15.15)"><path class="a" d="M690.987,74.5l-.937-.521.937-.475a2.45,2.45,0,0,0,.952-3.41l-1.3-2.175a2.585,2.585,0,0,0-1.578-1.169,2.687,2.687,0,0,0-1.974.25l-.933.52.026-1.018a2.55,2.55,0,0,0-2.6-2.5h-2.6a2.55,2.55,0,0,0-2.6,2.5v1.032L677.481,67a2.687,2.687,0,0,0-1.974-.25,2.585,2.585,0,0,0-1.578,1.169l-1.3,2.175a2.45,2.45,0,0,0,.952,3.41l.919.511-.919.485a2.45,2.45,0,0,0-.952,3.41l1.3,2.175a2.585,2.585,0,0,0,1.578,1.169,2.687,2.687,0,0,0,1.974-.25l.933-.52-.026,1.018a2.55,2.55,0,0,0,2.6,2.5h2.6a2.55,2.55,0,0,0,2.6-2.5V80.467l.907.534a2.687,2.687,0,0,0,1.974.25,2.585,2.585,0,0,0,1.578-1.169l1.3-2.175A2.45,2.45,0,0,0,690.987,74.5Zm-2.237,1.643.937.522-1.3,2.175-.933-.52a2.634,2.634,0,0,0-2.555,0l-.037.021a2.434,2.434,0,0,0-1.28,2.125V81.5h-2.6V80.467a2.437,2.437,0,0,0-1.28-2.126l-.037-.021a2.632,2.632,0,0,0-2.556,0l-.933.52-1.3-2.175.919-.511a2.439,2.439,0,0,0,0-4.3l-.919-.511,1.3-2.175.933.52a2.633,2.633,0,0,0,2.556,0l.036-.02a2.434,2.434,0,0,0,1.28-2.125V66.5h2.6v1.032a2.437,2.437,0,0,0,1.28,2.126l.037.02a2.63,2.63,0,0,0,2.555,0l.933-.52,1.3,2.175-.937.521a2.436,2.436,0,0,0-1.271,2.126v.03A2.433,2.433,0,0,0,688.749,76.141Z" transform="translate(435.728 -524.375) rotate(120)"/><ellipse class="a" cx="2.592" cy="2.5" rx="2.592" ry="2.5" transform="translate(33.96 28.506) rotate(120)"/></g></svg>