<svg xmlns="http://www.w3.org/2000/svg" width="16" height="16" viewBox="0 0 16 16"><defs><style>.a{fill:#adadad;}</style></defs><path class="a" d="M136,352a8,8,0,0,0-4.215,14.794s.008.008.013.011l.007,0,.008.005a7.984,7.984,0,0,0,8.388-.01A8,8,0,0,0,136,352Zm0,14a5.9,5.9,0,0,1-3.14-.89,5,5,0,0,1,6.28,0A5.9,5.9,0,0,1,136,366Zm-2-6a2,2,0,1,1,2,2A2,2,0,0,1,134,360Zm6.631,3.795a1.975,1.975,0,0,0-.239-.245,7.016,7.016,0,0,0-1.444-.869,4,4,0,1,0-5.9,0,7.016,7.016,0,0,0-1.444.869,1.99,1.99,0,0,0-.24.245,6,6,0,1,1,9.262,0Z" transform="translate(-128 -352)"/></svg>