<?xml version="1.0" encoding="utf-8"?>
<!-- Generator: Adobe Illustrator 24.0.2, SVG Export Plug-In . SVG Version: 6.00 Build 0)  -->
<svg version="1.1" id="Layer_1" xmlns="http://www.w3.org/2000/svg" xmlns:xlink="http://www.w3.org/1999/xlink" x="0px" y="0px"
	 viewBox="0 0 100 100" style="enable-background:new 0 0 100 100;" xml:space="preserve">
<style type="text/css">
	.st0{fill:#00599C;}
</style>
<g>
	<g>
		<path class="st0" d="M93.59,27.76C85.47,11.9,68.99,1,50,1c-27.03,0-49,21.99-49,49.02c0,27,21.96,48.98,49,48.98
			c24.53,0,44.86-18.16,48.39-41.72c0.09-0.56,0.19-1.12,0.26-1.68c0.07-0.61,0.11-1.23,0.16-1.86c0.1-1.24,0.18-2.46,0.18-3.72
			C98.99,41.99,97.02,34.45,93.59,27.76z M84.09,38.81c0.94,5.38-10.13,11.79-24.7,14.32c-14.57,2.54-27.14,0.22-28.07-5.16
			c-0.94-5.37,10.12-11.79,24.69-14.32C70.59,31.12,83.16,33.44,84.09,38.81z M90.04,61.32c-7.46,4.09-16.84,7.43-27.3,9.25
			c-26.55,4.6-49.89-2.33-52.26-13.74c0.01,0.1,0.11,0.84,0.13,0.95c2.01,11.61,25.66,19.16,52.45,14.51
			c10.05-1.75,19.11-5.05,26.4-9.04c-5.54,16.49-21.1,28.4-39.45,28.4c-22.97,0-41.64-18.66-41.64-41.63
			C8.37,27.04,27.03,8.36,50,8.36c13.82,0,26.04,6.79,33.61,17.18c-8.3-1.12-18.18-0.92-28.61,0.89
			C28.52,31.02,8.67,44.18,10.69,55.8c0.02,0.1,0.06,0.2,0.09,0.29c2.37,11.42,25.28,16.99,51.54,12.43
			c10.93-1.9,20.68-5.25,28.28-9.35C90.43,59.89,90.24,60.6,90.04,61.32z"/>
	</g>
	<path class="st0" d="M56.11,34.19c-13.25,2.31-23.31,8.02-22.49,12.79c0.83,4.77,12.24,6.78,25.49,4.48
		c13.25-2.29,23.32-8.03,22.49-12.8C80.77,33.89,69.36,31.9,56.11,34.19z M50.51,36.62l11.3-2.02l6.62,0.39l-3.96,4.79l-15.69,2.71
		l-4.77-3L50.51,36.62z M43.98,44.86l-0.82-4.75l5.18,3.18l0.86,4.98L43.98,44.86z M50.11,48.31l-0.86-4.92l15.46-2.69l0.85,4.95
		L50.11,48.31z M66.31,45.37l-0.86-4.98l3.81-4.68l0.83,4.73L66.31,45.37z"/>
	<path class="st0" d="M56.56,39.6c3.73-0.65,6.66-1.81,6.52-2.58c-0.13-0.76-3.27-0.86-7.01-0.21c-3.74,0.65-6.66,1.8-6.52,2.56
		C49.68,40.14,52.82,40.23,56.56,39.6z"/>
</g>
</svg>
