<?xml version="1.0" encoding="utf-8"?>
<!-- Generator: Adobe Illustrator 24.0.2, SVG Export Plug-In . SVG Version: 6.00 Build 0)  -->
<svg version="1.1" id="Layer_1" xmlns="http://www.w3.org/2000/svg" xmlns:xlink="http://www.w3.org/1999/xlink" x="0px" y="0px"
	 viewBox="0 0 100 100" style="enable-background:new 0 0 100 100;" xml:space="preserve">
<style type="text/css">
	.st0{fill:#00599C;}
</style>
<g>
	<g>
		<g>
			<path class="st0" d="M55.21,48.22c-0.04,7.06-1.69,13.66-5.8,19.47c-7.67,10.86-19.85,11.16-28.07,0.73
				c-8.74-11.08-8.38-30.94,0.74-41.67c7.94-9.34,19.17-9.06,26.64,0.65C52.91,32.85,55.24,40.3,55.21,48.22z M48,49.68
				c0.01-5.81-0.98-9.86-3.45-13.46C40.19,29.82,33.1,29,27.39,34.19c-7.01,6.38-6.81,21.89,0.37,28.09
				c4.92,4.26,11.02,3.97,15.45-0.82C46.66,57.73,47.95,53.18,48,49.68z"/>
		</g>
		<g>
			<path class="st0" d="M46.34,20.07c10.59-1.36,16.79,4.48,20.76,12.53c2.27,4.6,3.25,9.54,3.34,14.61
				c0.17,8.98,2.23,17.28,8.34,24.79c-3.64,0-6.87,0.21-10.04-0.12c-1.08-0.11-2.19-1.44-3.01-2.44c-4.76-5.85-6.94-12.68-7.1-20.14
				c-0.18-8.31-1.7-16.22-6.75-23.05C50.27,24.06,48.25,22.17,46.34,20.07z"/>
		</g>
		<g>
			<path class="st0" d="M45.84,75.92c5.58-4.16,8.85-9.59,10.93-15.8c1.78,3.55,3.49,6.95,5.29,10.53
				C57.89,75.26,52.44,76.63,45.84,75.92z"/>
		</g>
		<g>
			<path class="st0" d="M41.24,60.52c-3.51,3.46-8.21,3.64-11.83,0.52c-6.76-5.84-6.96-19.71-0.36-25.7
				c3.78-3.43,8.25-3.38,12.16,0.2C36.16,43.79,36.12,52.09,41.24,60.52z"/>
		</g>
	</g>
	<g>
		<g>
			<path class="st0" d="M50.08,1h-0.13C22.95,1.04,1.01,22.99,1,49.98v0.04C1.01,77.03,22.98,99,50.01,99C77.03,99,99,77.02,99,50
				C99,23.01,77.06,1.04,50.08,1z M50.01,91.19C27.29,91.19,8.8,72.71,8.8,50c0-22.71,18.49-41.19,41.21-41.19
				c22.71,0,41.18,18.48,41.18,41.19C91.19,72.71,72.72,91.19,50.01,91.19z"/>
		</g>
	</g>
</g>
</svg>
