<?xml version="1.0" encoding="utf-8"?>
<!-- Generator: Adobe Illustrator 24.0.2, SVG Export Plug-In . SVG Version: 6.00 Build 0)  -->
<svg version="1.1" id="Layer_1" xmlns="http://www.w3.org/2000/svg" xmlns:xlink="http://www.w3.org/1999/xlink" x="0px" y="0px"
	 viewBox="0 0 100 100" style="enable-background:new 0 0 100 100;" xml:space="preserve">
<style type="text/css">
	.st0{fill:#00599C;}
</style>
<g>
	<g>
		<path class="st0" d="M22.02,80.75c0.97-0.49,1.98-1,3.06-1.63c8.05-4.66,4.78-2.74,8.66-5.42c3.84-2.67,7.13-6.57,10.85-11.86
			c-2.19,0.07-32.64,2.38-32.64,2.38s5.31-1.03,12.61-1.84c9.01-0.99,20.33-1.8,20.33-1.8s3.38,2.43,11.66-3.32
			c8.27-5.76,12.66-6.82,15.4-10.3c0.81-1,3.53-9.62,3.53-9.62s-4.44,0.9-13.51,1.55c-9.06,0.67-15.3,0.2-15.3,0.2
			s8.44-0.63,16.4-1.29c7.96-0.68,12.43-1.67,12.43-1.67l7.01-1.27c0.24-5.33-1.58-9.66-4.01-10.35c-2.43-0.71-7.26-2.22-7.26-2.22
			l-1.92,3.66l8.37,0.21l-9.43,0.68c0,0-8.42-1.32-9.47-0.58c-1.06,0.74-10.54,6.51-14.53,9.27c-4.02,2.78-8.79,10.88-8.79,10.88
			s-8.62,2.66-12.81,4.91c-4.2,2.26-0.9,0.22-8.04,4.76c-1.77,1.15-3.46,2.55-4.98,3.98C11.67,68.18,16.03,75.29,22.02,80.75z"/>
	</g>
	<g>
		<path class="st0" d="M49.99,1C23,1,1,22.96,1,49.98c0,5.83,1.03,11.42,2.9,16.61c2.32,6.35,5.89,12.1,10.42,16.93
			C23.27,93.05,35.95,99,49.99,99C77,99,99,77.01,99,49.98C99,22.96,77,1,49.99,1z M49.99,91.62c-10.79,0-20.6-4.15-27.98-10.87
			c-5.98-5.45-10.35-12.57-12.36-20.67c-0.82-3.22-1.27-6.59-1.27-10.09c0-22.94,18.65-41.63,41.61-41.63
			c22.97,0,41.64,18.69,41.64,41.63C91.64,72.94,72.96,91.62,49.99,91.62z"/>
	</g>
</g>
</svg>
