<?xml version="1.0" encoding="utf-8"?>
<!-- Generator: Adobe Illustrator 24.0.2, SVG Export Plug-In . SVG Version: 6.00 Build 0)  -->
<svg version="1.1" id="Layer_1" xmlns="http://www.w3.org/2000/svg" xmlns:xlink="http://www.w3.org/1999/xlink" x="0px" y="0px"
	 viewBox="0 0 100 100" style="enable-background:new 0 0 100 100;" xml:space="preserve">
<style type="text/css">
	.st0{fill:#00599C;}
</style>
<g>
	<g>
		<path class="st0" d="M23.95,34.76V66.6h52.1V34.76H23.95z M50,59.42c-4.83,0-8.74-3.91-8.74-8.74c0-4.83,3.91-8.74,8.74-8.74
			c4.83,0,8.74,3.91,8.74,8.74C58.74,55.51,54.83,59.42,50,59.42z"/>
	</g>
	<g>
		<path class="st0" d="M76.05,31.15c0-2.15-1.44-3.9-3.39-4.51c-0.38-1.16-1.43-2.02-2.72-2.02H59.82v-1.23c0-1.6-1.3-2.9-2.9-2.9
			H43.08c-1.6,0-2.9,1.3-2.9,2.9v1.23H30.06c-1.29,0-2.35,0.86-2.72,2.02c-1.95,0.61-3.39,2.36-3.39,4.51v0.45h52.1V31.15z"/>
	</g>
	<g>
		<polygon class="st0" points="51.13,44.57 48.87,44.57 48.87,49.55 43.89,49.55 43.89,51.81 48.87,51.81 48.87,56.79 51.13,56.79 
			51.13,51.81 56.11,51.81 56.11,49.55 51.13,49.55 		"/>
	</g>
	<g>
		<g>
			<path class="st0" d="M76.05,81.65c-1.72,1.42-3.56,2.7-5.49,3.84C72.51,84.35,74.32,83.07,76.05,81.65z"/>
		</g>
		<g>
			<path class="st0" d="M61.98,89.21c-1.42,0.45-2.84,0.92-4.33,1.21C59.14,90.14,60.55,89.65,61.98,89.21z"/>
		</g>
		<g>
			<path class="st0" d="M42.37,90.42c-1.49-0.29-2.92-0.76-4.35-1.21C39.46,89.65,40.87,90.14,42.37,90.42z"/>
		</g>
		<g>
			<path class="st0" d="M69.93,85.82c-1.74,0.99-3.56,1.87-5.45,2.6C66.39,87.71,68.18,86.81,69.93,85.82z"/>
		</g>
		<g>
			<path class="st0" d="M35.53,88.43c-1.89-0.74-3.71-1.61-5.46-2.61C31.83,86.8,33.62,87.71,35.53,88.43z"/>
		</g>
		<g>
			<path class="st0" d="M50.08,1h-0.13C22.95,1.04,1.01,22.99,1,49.98v0.04C1.01,77.03,22.98,99,50.01,99C77.03,99,99,77.02,99,50
				C99,23.01,77.06,1.04,50.08,1z M76.05,81.64L76.05,81.64C76.05,81.64,76.05,81.65,76.05,81.64c-1.73,1.43-3.54,2.71-5.49,3.84
				c-0.2,0.12-0.42,0.22-0.63,0.34c-1.76,0.98-3.55,1.88-5.45,2.6c-0.81,0.32-1.67,0.51-2.51,0.78c-1.43,0.44-2.84,0.93-4.33,1.21
				c-2.47,0.48-5.02,0.77-7.64,0.77c-2.62,0-5.16-0.29-7.64-0.77c-1.5-0.28-2.91-0.77-4.35-1.21c-0.83-0.26-1.69-0.46-2.49-0.78
				c-1.91-0.72-3.7-1.63-5.46-2.61c-0.2-0.12-0.42-0.22-0.62-0.34C17.17,78.34,8.8,65.19,8.8,50c0-22.71,18.49-41.19,41.21-41.19
				c22.71,0,41.18,18.48,41.18,41.19C91.19,62.78,85.22,74.08,76.05,81.64z"/>
		</g>
		<g>
			<path class="st0" d="M23.95,69.76v11.88c1.72,1.42,3.57,2.7,5.5,3.84c0.2,0.12,0.42,0.22,0.62,0.34c1.75,1,3.57,1.87,5.46,2.61
				c0.81,0.31,1.66,0.51,2.49,0.78c1.43,0.45,2.85,0.92,4.35,1.21c2.47,0.48,5.02,0.77,7.64,0.77c2.62,0,5.16-0.29,7.64-0.77
				c1.49-0.29,2.91-0.76,4.33-1.21c0.84-0.27,1.69-0.46,2.51-0.78c1.89-0.74,3.71-1.61,5.45-2.6c0.21-0.12,0.42-0.22,0.63-0.34
				c1.93-1.14,3.77-2.42,5.49-3.84c0,0,0,0,0,0l0,0V69.76H23.95z"/>
		</g>
	</g>
</g>
</svg>
