<?xml version="1.0" encoding="utf-8"?>
<!-- Generator: Adobe Illustrator 24.0.2, SVG Export Plug-In . SVG Version: 6.00 Build 0)  -->
<svg version="1.1" id="Layer_1" xmlns="http://www.w3.org/2000/svg" xmlns:xlink="http://www.w3.org/1999/xlink" x="0px" y="0px"
	 viewBox="0 0 100 100" style="enable-background:new 0 0 100 100;" xml:space="preserve">
<style type="text/css">
	.st0{fill:#00599C;}
</style>
<g>
	<g>
		<path class="st0" d="M1.01,50.01c0,27.01,21.99,48.99,49,48.99c27.01,0,48.99-21.99,48.99-48.99C98.99,22.99,77.01,1,50.01,1
			C22.99,1,1.01,22.99,1.01,50.01z M8.81,50.01c0-22.71,18.47-41.19,41.19-41.19c22.7,0,41.16,18.48,41.16,41.19
			c0,22.7-18.47,41.18-41.16,41.18C27.28,91.19,8.81,72.71,8.81,50.01z"/>
	</g>
	<g>
		<rect x="64.81" y="27.36" class="st0" width="8.49" height="31.75"/>
	</g>
	<g>
		<rect x="27.65" y="27.36" class="st0" width="8.31" height="28.16"/>
	</g>
	<g>
		<path class="st0" d="M58.16,72.47c0-4.47-3.65-8.1-8.09-8.1c-4.48,0-8.12,3.63-8.12,8.1c0,0.02,0.01,0.04,0.01,0.06v10.15h16.2
			V72.47L58.16,72.47C58.16,72.47,58.16,72.47,58.16,72.47z"/>
	</g>
</g>
</svg>
