<?xml version="1.0" encoding="utf-8"?>
<!-- Generator: Adobe Illustrator 24.0.2, SVG Export Plug-In . SVG Version: 6.00 Build 0)  -->
<svg version="1.1" id="Layer_1" xmlns="http://www.w3.org/2000/svg" xmlns:xlink="http://www.w3.org/1999/xlink" x="0px" y="0px"
	 viewBox="0 0 100 100" style="enable-background:new 0 0 100 100;" xml:space="preserve">
<style type="text/css">
	.st0{fill:#00599C;}
</style>
<g>
	<g>
		<path class="st0" d="M64.46,49.49c0,0,11.76,1.33,14.52,1.64c0.59-0.91,2.83-4.44,4.34-7.02c0.3-0.51,0.44-1.02,0.53-1.53
			c-3.54-0.4-14.03-1.59-14.22-1.65c0,0-20.54-12.53-20.66-12.66l-9.35-11.28l-5.07,8.4c1.39,1.7,9.61,11.62,9.61,11.66
			C44.17,37.06,64.46,49.43,64.46,49.49z"/>
	</g>
	<g>
		<path class="st0" d="M95.8,32.63C88.78,14.16,70.92,1,50,1C22.99,1,1,22.96,1,49.99C1,61.76,5.18,72.53,12.08,81
			c5.65,6.88,13.11,12.2,21.66,15.2C38.82,98.01,44.31,99,50,99c23.55,0,43.27-16.72,47.96-38.92C98.63,56.82,99,53.45,99,49.99
			C99,43.86,97.86,38.02,95.8,32.63z M89.83,62.09C84.66,79.18,68.73,91.67,50,91.67c-3.28,0-6.45-0.43-9.54-1.16
			c-0.3-1.02-1.43-2.71-1.01-3.27c0.52-0.71,3.17,0.35,3.67-0.5c0.5-0.85-2.12-3.02-1.32-4.03c0.81-1,3.65,0.37,4.04-0.29
			c0.4-0.68-1.44-2.99-1.02-3.76c0.45-0.76,2.83,0.53,3.25-0.57c0.43-1.14-1.47-2.11-0.94-3.09c0.52-1,2.42,0.41,3.31-0.64
			c0.91-1.06-1.5-1.61-0.84-3.02c0.67-1.42,2.11,0.06,3.29-1.19c0.5-0.53-1.31-2.25-0.74-2.99c0.52-0.71,2.54,0.22,3.28-0.52
			c0.53-0.53-0.94-2.43-0.44-3.08c0.53-0.71,2.19,0.3,2.94-0.38c0.7-0.62-1.15-2.88-0.6-3.73c0.42-0.67,1.92-0.66,2.85-0.99
			c1.07-0.36,2.1-1.77,2.51-2.31c1.48-2.03,2.54-3.53,3.83-5.32c-1.4-0.17-2.36-0.29-2.42-0.32c0,0-20.52-12.51-20.66-12.64
			l-2.76-3.33l-1.99,5.72c0,0-1.42,2.67-1.19,4.39c0.23,1.72,0.97,2.73,0.2,3.5c-0.53,1.49-3.23-0.21-3.7,0.88
			c-0.4,0.94,0.43,2.16,0,3.03c-0.41,0.83-2.7-0.21-3.08,0.58c-0.52,1.06,0.82,2.7,0.41,3.65c-0.39,0.87-2.68-0.1-2.96,0.64
			c-0.71,1.8,1.03,2.17,0.37,3.28c-0.68,1.1-2.19-0.67-3.12,0.36c-0.96,1.03,0.87,2.8,0.43,3.22c-0.47,0.4-2.59-0.82-3.31,0.23
			c-0.73,1.06,1.05,2.88,0.55,3.95c-0.5,1.06-3.17-0.58-3.71,0.58c-0.56,1.14,1.49,2.9,1.02,3.75c-0.5,0.84-2.71-0.99-3.47,0.29
			c-0.72,1.27,1.29,2.53,0.74,3.69c-0.01,0.02-0.03,0.02-0.06,0.04c-5.87-7.18-9.41-16.34-9.41-26.34C8.37,27.03,27.03,8.35,50,8.35
			c17.31,0,32.18,10.63,38.46,25.69c2.03,4.92,3.18,10.28,3.18,15.95C91.64,54.2,91,58.26,89.83,62.09z"/>
	</g>
	<g>
		<path class="st0" d="M70.02,39.88c0,0,10.37,1.19,13.92,1.59c-0.06-1.99-1.13-3.63-1.13-3.63s-3.33-5.53-12.77-11.51
			C60.57,20.34,50.61,14,44.58,14.59c-2.1,0.49-1.54,0.09-4.2,1.58c2.04,2.47,9.31,11.22,9.31,11.27
			C49.7,27.44,70.02,39.82,70.02,39.88z"/>
	</g>
</g>
</svg>
