<?xml version="1.0" encoding="utf-8"?>
<!-- Generator: Adobe Illustrator 24.0.2, SVG Export Plug-In . SVG Version: 6.00 Build 0)  -->
<svg version="1.1" id="Layer_1" xmlns="http://www.w3.org/2000/svg" xmlns:xlink="http://www.w3.org/1999/xlink" x="0px" y="0px"
	 viewBox="0 0 100 100" style="enable-background:new 0 0 100 100;" xml:space="preserve">
<style type="text/css">
	.st0{fill:#00599C;}
</style>
<g>
	<g>
		<path class="st0" d="M50.01,1C22.99,1,1,22.99,1,49.99C1,77.02,22.99,99,50.01,99C77.02,99,99,77.02,99,49.99
			C99,22.99,77.02,1,50.01,1z M50.01,91.65c-22.97,0-41.65-18.69-41.65-41.66c0-22.95,18.68-41.65,41.65-41.65
			c22.96,0,41.65,18.69,41.65,41.65C91.65,72.96,72.97,91.65,50.01,91.65z M78.69,56.02l-4.65-0.8l-8.42,0.63v0.97l0.04,0.23
			l8.11-0.63l4.64,0.79h0.01h0.02l0.01,0.01l0.54,0.07v-0.22l-0.07-1.01l-0.2-0.05H78.69z M78.23,58.04l-0.02-0.01h-0.03l-4.14-0.68
			l-8.28,0.64v0.04l0.13,0.12l0.27,0.27l0.27,0.26l0.4,0.14l11.63-0.14l0.4-0.26l0.06-0.24L78.23,58.04L78.23,58.04z M84.19,60.02
			l-0.4-0.27l0.14-0.13v-0.8l-0.28-0.53l-0.13-0.41l-0.14-0.4l-0.12-0.52v-0.53l-0.14-0.4l-0.14-0.41l-0.12-0.39l-0.26-0.41
			l-0.27-0.39l-0.4-0.4l-0.53-0.26l-0.54-0.28v-2l-0.26-0.93l-0.27-1.08l-0.4-1.07l-0.67-0.92l-0.4-0.54l-0.4-0.54l-0.53-0.53
			l-0.53-0.4l-0.68-0.4l-0.8-0.41l-0.79-0.27l-0.94-0.26l-2.81-0.94l-1.07-0.26l-0.93-6.41l0.12-0.14h0.41l0.26-0.13l0.13-0.13
			l0.13-0.13v-0.41l-0.13-0.39l-0.13-0.28l-0.26-0.4c0,0-2.56-3.3-3.29-4.04l-3.39-3.36l-0.81-0.61l-0.8-0.54l-0.94-0.4l-1.06-0.4
			l-1.21-0.27l-1.2-0.27l-1.17-0.21l-1.37-0.19l-1.4-0.18l-1.27-0.22l-1.34-0.13l-1.48-0.12l-1.32-0.14l-1.47-0.14l-1.47-0.13H39.3
			l-1.47,0.13l-1.34,0.14l-0.8,0.14l-0.8,0.12l-0.81,0.13l-0.75,0.18l-0.58,0.22l-0.67,0.27l-0.53,0.26l-0.54,0.27l-0.4,0.26
			l-0.4,0.27l-1.2,0.8h-2c0,0-0.4,0.02-0.69,0.45c-0.23,0.36-0.25,0.62-0.25,0.62l-0.13,1.87l-0.14,3.87l-0.13,4.27l-0.14,3.6v4.02
			l0.14,5.2v4.68l0.13,1.87l0.8,1.74H22.2l-0.13,0.52h-1.74l-0.4,0.15l-0.27,0.12l-0.26,0.4l-0.54-0.4l-2.67,0.12
			c0,0-0.28,0.21-0.54,0.5c-0.26,0.27-0.3,0.53-0.53,1.01c-0.23,0.5-0.44,1.3-0.44,1.3s-0.02,1.75-0.02,2.26
			c0,0.52,0.3,3.22,0.3,3.22l0.57,1.48l0.27,0.4l0.26,0.26l0.41,0.27l3.2-0.27h0.14l0.26,0.27l0.27,0.27l0.4,0.12l6.55-0.12
			l0.14-0.27l0.26-0.4l0.26-0.8l0.13-0.93l5.62,0.26v0.26l0.13,0.14l0.14,0.27l0.26,0.27l0.4,0.27l0.4,0.27h6.69v0.13l0.25,0.54
			l0.27,0.54l0.53,0.8l0.68,0.8l0.8,0.67l1.07,0.52l1.47,0.27h2l0.68-0.13l0.66-0.15l0.66-0.12h0.54l0.54-0.27l0.53-0.13l0.8-0.27
			l0.27-0.12h0.27l0.12-0.15l0.14-0.13h0.13l0.14-0.27l0.14-0.26l0.26-0.54l0.26-0.4l0.14-0.54l0.12-0.39l0.14-0.53l13.49-0.4
			l0.14,0.27l0.13,0.27l0.27,0.4l0.39,0.54l0.54,0.4l0.53,0.54l0.54,0.4h0.13l0.26,0.12l0.14,0.14h0.13l0.27,0.14h0.13l0.14,0.12
			h0.26l0.54,0.13h2.67l1.07-0.25l0.4-0.14l0.53-0.14l0.4-0.12l0.4-0.27l0.4-0.14l0.41-0.27l0.26-0.27l0.27-0.26l0.4-0.67l0.26-0.4
			l0.4-0.4l0.14-0.27l0.14-0.13l0.12-0.13v-0.14h0.27l0.27-0.14h0.41l0.26-0.13l0.4-0.13l0.26-0.26l0.13-0.42l0.14-0.27v-0.12
			l0.14-0.26v-1.75l0.12-0.65l0.14-0.68l0.13-0.53v-0.4l0.13-0.26v-2.14L84.19,60.02z M17.7,68.38c-0.02,0-0.04,0.01-0.07,0.01
			c-1.08,0-1.95-1.62-1.95-3.63c0-2,0.87-3.63,1.95-3.63c0.03,0,0.04,0.02,0.07,0.02c-0.44,0.34-0.79,1.83-0.79,3.6
			C16.91,66.55,17.26,68.05,17.7,68.38z M21.27,68.38c-0.02,0-0.04,0.01-0.06,0.01c-1.07,0-1.95-1.62-1.95-3.63
			c0-2,0.88-3.63,1.95-3.63c0.02,0,0.04,0.02,0.06,0.02c-0.45,0.34-0.79,1.83-0.79,3.6C20.48,66.55,20.82,68.05,21.27,68.38z
			 M28.47,57.35l-0.64-2.05V28.18c0.45-0.52,1.21-0.15,2.15-0.24c0.93-0.08,2.59-1.86,3.38-1.37c1.46,0.89,1.13,5.28,1.13,5.28
			l0.08,25.34L28.47,57.35z M73.37,47.6h0.39l5.08,1.47l0.26,0.27l0.14,0.26l0.54,8.01v0.68l-0.13,0.53l-0.14,0.26l-0.27,0.28
			l-0.4,0.12H66.28l-0.53-0.12l-0.4-0.28l-0.13-0.12l-0.27-0.54l-0.27-8.02v-0.67l0.13-0.66l0.14-0.42l0.27-0.27l0.26-0.13h0.4
			L73.37,47.6z M60.16,36l1.77,0.14l6.36,0.5l0.31,2.39l0.24,1.83l0.12,1.02l0.11,0.82l0.02,0.09h-0.13l-7.9-0.62l-0.89-4.71
			L60,36.6l-0.13-0.62L60.16,36z M47.39,64.15c-0.92-0.18-1.92,0.58-2.28,1.8c-0.36,1.21,0.07,2.39,0.93,2.75l-0.43,1.43
			c-0.01,0-0.03-0.01-0.04-0.01c-1.71-0.51-2.55-2.78-1.87-5.07c0.68-2.27,2.62-3.71,4.33-3.21c0.01,0,0.03,0.01,0.04,0.01
			L47.39,64.15z M50.39,60.7l-0.4-0.95l-0.27-0.8l-0.26-0.81l-0.41-0.67l-0.4-0.65l-0.53-0.54l-0.41-0.4l-0.53-0.4l-0.53-0.25
			l-0.54-0.15h-0.53l-0.67,0.15l-0.67,0.25l-1.07,0.95l-0.8,1.46l-0.66,1.87l-0.27,2l-0.27,1.87h-0.14l0.14-3.06l0.54-3.34l0.25-0.8
			l0.27-0.67l0.27-0.53l0.4-0.54l0.54-0.4c0,0,0.98-0.74,1.5-0.85c0.52-0.12,1.84,0.04,1.84,0.04l0.53,0.14c0,0,1.8,0.64,2.26,1.37
			c0.5,0.8,1.05,1.71,1.21,2.09c0.32,0.75,0.43,1.52,0.43,1.52l0.29,1.46L50.39,60.7z M47.04,42.78h-1.06l-0.14-0.13l-0.26-0.54
			v-0.4l-0.21-4.49l-0.03-0.58l-0.03-0.8l0.93,0.01l1.06,0.01l11.36,0.12l0.77,4.5l0.18,1.11l0.12,0.66L47.04,42.78z M54.78,58.01
			c0-0.35,0.26-0.81,0.76-0.99c0.86-0.3,2.12-0.36,3.47-0.36l0,0c0.01,0,0.03,0,0.05,0c0.03,0,0.07,0,0.1,0l0,0
			c1.32,0.01,2.3,0.12,3.21,0.29c0.73,0.12,1.03,0.48,1.03,0.86c0,0.35-0.26,0.81-0.76,1c-0.86,0.31-2.12,0.36-3.48,0.36l0,0
			c-0.02,0-0.03,0-0.04,0c-0.04,0-0.07,0-0.1,0l0,0c-1.31-0.01-2.3-0.12-3.21-0.29C55.08,58.75,54.78,58.4,54.78,58.01z M82.03,64
			c0,0.03-0.02,0.05-0.02,0.07c-0.01,0.09-0.02,0.15-0.02,0.22c-0.02,0.07-0.02,0.12-0.04,0.18c0,0.02,0,0.02-0.01,0.03
			c-0.09,0.41-0.28,0.8-0.28,0.8l-0.13,0.13c0,0,0,0,0,0.01H81.5l-0.01,0.03H56.24c-0.01,0-0.01,0-0.01-0.01l-0.12-0.13
			c0,0-0.18-0.39-0.29-0.8c0,0-0.01-0.01-0.01-0.02c-0.01-0.07-0.02-0.12-0.03-0.18c-0.01-0.08-0.02-0.15-0.02-0.22
			c-0.01-0.01-0.01-0.05-0.01-0.07h0c0-0.1,0-0.2,0-0.33c0-0.54,0.36-1.31,0.36-1.31l0.13-0.14h0.56l0-0.02h24.72l0.13,0.14
			c0,0,0.37,0.76,0.37,1.3c0,0.14-0.01,0.23-0.02,0.33H82.03z M81.99,58.53L81.99,58.53C81.99,58.53,81.99,58.53,81.99,58.53
			c-0.02,0.01-0.02,0.01-0.02,0.01l0,0c-0.18,0.03-0.33-0.06-0.49-0.17c-0.12-0.09-0.23-0.41-0.31-0.76
			c-0.06-0.31-0.12-0.72-0.08-0.89c0.06-0.3,0.22-0.39,0.4-0.43l0,0l0,0c0.01,0,0.01-0.01,0.01-0.01v0.01
			c0.18-0.03,0.35,0.04,0.49,0.16c0.12,0.1,0.23,0.4,0.31,0.76c0.06,0.31,0.12,0.71,0.07,0.9C82.33,58.4,82.16,58.48,81.99,58.53z
			 M65.55,53.72l0.06,1.19l8.15-0.62l5.06,0.79h0.02l-0.01-0.16L78.77,54l-4.87-0.92L65.55,53.72z M65.59,49.29
			c-0.04,0.22-0.11,0.58-0.11,0.58v0.76L73.63,50l4.87,0.9l-0.06-0.23L78.31,50l-0.4-0.4l-4.15-1.06h-0.26l-7.36,0.54h-0.27
			C65.88,49.08,65.63,49.13,65.59,49.29z M65.48,51.45v1.22l0,0.11l8.28-0.65l4.93,0.92l-0.08-1.2l-4.71-0.92L65.48,51.45z"/>
	</g>
</g>
</svg>
