<?xml version="1.0" encoding="utf-8"?>
<!-- Generator: Adobe Illustrator 24.0.2, SVG Export Plug-In . SVG Version: 6.00 Build 0)  -->
<svg version="1.1" id="Layer_1" xmlns="http://www.w3.org/2000/svg" xmlns:xlink="http://www.w3.org/1999/xlink" x="0px" y="0px"
	 viewBox="0 0 100 100" style="enable-background:new 0 0 100 100;" xml:space="preserve">
<style type="text/css">
	.st0{fill:#00599C;}
</style>
<g>
	<g>
		<path class="st0" d="M53.17,22.92h-6.33c-0.33,0-0.59,0.26-0.59,0.59v15.6c0,0.33,0.26,0.59,0.59,0.59h6.33
			c0.33,0,0.59-0.26,0.59-0.59v-15.6C53.76,23.18,53.49,22.92,53.17,22.92z"/>
	</g>
	<g>
		<path class="st0" d="M53.17,60.3h-6.33c-0.33,0-0.59,0.26-0.59,0.59v15.6c0,0.33,0.26,0.59,0.59,0.59h6.33
			c0.33,0,0.59-0.26,0.59-0.59v-15.6C53.76,60.57,53.49,60.3,53.17,60.3z"/>
	</g>
	<g>
		<path class="st0" d="M53.17,41.61h-6.33c-0.33,0-0.59,0.26-0.59,0.59v15.6c0,0.33,0.26,0.59,0.59,0.59h6.33
			c0.33,0,0.59-0.26,0.59-0.59V42.2C53.76,41.87,53.49,41.61,53.17,41.61z"/>
	</g>
	<g>
		<path class="st0" d="M42.42,24.06H26.04c-1.4,0-2.53,1.13-2.53,2.53v46.81c0,1.4,1.13,2.53,2.53,2.53h16.38
			c0.53,0,0.96-0.43,0.96-0.96V25.02C43.38,24.49,42.95,24.06,42.42,24.06z M26.67,50.01c0-1.6,1.29-2.89,2.89-2.89
			c1.6,0,2.89,1.29,2.89,2.89s-1.29,2.89-2.89,2.89C27.96,52.9,26.67,51.6,26.67,50.01z M33.68,72.28c-1.6,0-2.89-1.29-2.89-2.89
			c0-1.6,1.29-2.89,2.89-2.89c1.6,0,2.89,1.29,2.89,2.89C36.57,70.99,35.28,72.28,33.68,72.28z M33.68,33.52
			c-1.6,0-2.89-1.29-2.89-2.89c0-1.6,1.29-2.89,2.89-2.89c1.6,0,2.89,1.29,2.89,2.89C36.57,32.22,35.28,33.52,33.68,33.52z"/>
	</g>
	<g>
		<path class="st0" d="M73.96,24.06H57.58c-0.53,0-0.96,0.43-0.96,0.96v49.97c0,0.53,0.43,0.96,0.96,0.96h16.38
			c1.4,0,2.53-1.13,2.53-2.53V26.59C76.49,25.2,75.36,24.06,73.96,24.06z M67.07,27.74c1.6,0,2.89,1.29,2.89,2.89
			c0,1.6-1.29,2.89-2.89,2.89c-1.6,0-2.89-1.29-2.89-2.89C64.18,29.03,65.48,27.74,67.07,27.74z M67.07,72.28
			c-1.6,0-2.89-1.29-2.89-2.89c0-1.6,1.29-2.89,2.89-2.89c1.6,0,2.89,1.29,2.89,2.89C69.96,70.99,68.67,72.28,67.07,72.28z
			 M71.19,52.9c-1.6,0-2.89-1.29-2.89-2.89s1.29-2.89,2.89-2.89c1.6,0,2.89,1.29,2.89,2.89S72.79,52.9,71.19,52.9z"/>
	</g>
	<g>
		<path class="st0" d="M50,1C22.98,1,1,22.98,1,50c0,27.02,21.99,49,49,49C77.02,99,99,77.02,99,50C99,22.98,77.02,1,50,1z
			 M50,91.65C27.03,91.65,8.35,72.97,8.35,50C8.35,27.04,27.03,8.35,50,8.35c22.97,0,41.66,18.69,41.66,41.65
			C91.65,72.97,72.97,91.65,50,91.65z"/>
	</g>
</g>
</svg>
