<?xml version="1.0" encoding="utf-8"?>
<!-- Generator: Adobe Illustrator 24.0.2, SVG Export Plug-In . SVG Version: 6.00 Build 0)  -->
<svg version="1.1" id="Layer_1" xmlns="http://www.w3.org/2000/svg" xmlns:xlink="http://www.w3.org/1999/xlink" x="0px" y="0px"
	 viewBox="0 0 100 100" style="enable-background:new 0 0 100 100;" xml:space="preserve">
<style type="text/css">
	.st0{fill:#00599C;}
	.st1{fill-rule:evenodd;clip-rule:evenodd;fill:#00599C;}
</style>
<g>
	<g>
		<path class="st0" d="M50,1C22.99,1,1,22.98,1,50c0,27.02,21.99,49,49,49c27.02,0,49-21.98,49-49C99,22.98,77.02,1,50,1z M50,91.65
			C27.04,91.65,8.35,72.97,8.35,50C8.35,27.04,27.04,8.35,50,8.35c22.97,0,41.65,18.68,41.65,41.65
			C91.65,72.97,72.97,91.65,50,91.65z"/>
	</g>
	<g>
		<g>
			<path class="st1" d="M44.03,46.08c2.66-3.22,7.43-3.67,10.65-1c3.21,2.66,3.66,7.44,1,10.65c-2.67,3.22-7.44,3.67-10.65,1
				C41.8,54.07,41.36,49.3,44.03,46.08z"/>
		</g>
		<g>
			<path class="st0" d="M42.12,46.78c-8.83,2.84-17.6,6.44-22.66,15.62C12.24,75.43,37.12,89.8,46.49,84.25
				c10.71-6.34-0.82-13.26-0.1-20.47c0.15-1.55,0.99-2.26,1.28-4.39c-1.22-0.31-2.38-0.88-3.41-1.73
				C40.99,54.96,40.19,50.38,42.12,46.78z"/>
		</g>
		<g>
			<path class="st0" d="M56.6,56.5c-1.29,1.56-3,2.54-4.83,2.95c10.02,9.45,24.05,16.27,31.95,7.76c6.5-7.01,5.6-21.82-0.23-28.29
				c-3.09-3.42-7.82-4.98-10.81-2.9c-3.25,2.26-4.16,7.54-7.19,10.01c-2.3,1.86-4.16,1.58-7.38,1.58c0.07,0.28,0.12,0.57,0.17,0.87
				C59.05,51.18,58.52,54.19,56.6,56.5z"/>
		</g>
		<g>
			<path class="st0" d="M25.57,37.73c4.09,2.23,8.58-1.75,13.41,1.76c2.47,1.79,2.53,3.62,4.08,5.89c0.02-0.02,0.03-0.04,0.04-0.06
				c3.09-3.73,8.61-4.24,12.34-1.16c0.11,0.09,0.21,0.18,0.29,0.28c2.36-9.34,2.33-18.56-1.55-25.95
				c-5.81-11.01-20.94-5.39-27.31,1.06C20.96,25.54,18.84,34.06,25.57,37.73z"/>
		</g>
	</g>
</g>
</svg>
