<?xml version="1.0" encoding="utf-8"?>
<!-- Generator: Adobe Illustrator 24.0.2, SVG Export Plug-In . SVG Version: 6.00 Build 0)  -->
<svg version="1.1" id="Layer_1" xmlns="http://www.w3.org/2000/svg" xmlns:xlink="http://www.w3.org/1999/xlink" x="0px" y="0px"
	 viewBox="0 0 100 100" style="enable-background:new 0 0 100 100;" xml:space="preserve">
<style type="text/css">
	.st0{fill:#00599C;}
</style>
<g>
	<path class="st0" d="M1,50c0,27.03,21.98,49,49,49C77.01,99,99,77.03,99,50C99,22.99,77.01,1,50,1C22.97,1,1,22.99,1,50z M8.37,50
		C8.37,27.05,27.02,8.33,50,8.33c22.97,0,41.65,18.71,41.65,41.66c0,22.98-18.68,41.67-41.65,41.67C27.02,91.67,8.37,72.98,8.37,50z
		"/>
	<path class="st0" d="M69.31,76.85c-2.35-2.37-5.64-13.12-5.97-18.16h1.49v-6.57h-2.06c0.07-0.17,0.13-0.35,0.13-0.55
		c0-0.98-0.72-1.75-1.65-1.88v-3.77c2.66-0.15,5.33-0.41,6.79-0.92c3.3-1.06,3.58-4.37,2.48-5.45c-1.11-1.1-11.77-12.33-11.77-12.33
		H22.57l-0.27,5.73c4.18,0,7.92,0.89,11.11,2.2c-0.19-0.02-0.37-0.08-0.56-0.08c0,1.34-1.65,13.12-4.95,17.82l2.19,1.63
		c1.65-1.92,6.02-11.78,7.13-15.61c1.5,1.75,2.86,2.79,5.83,2.94c0.2,0.22,0.45,0.48,0.61,0.69c0.81,1.15,1.89,1.88,3.07,2.41v4.72
		c-0.93,0.13-1.63,0.92-1.63,1.88c0,0.2,0.06,0.38,0.11,0.55h-2.09v6.57h0.41c-0.28,4.8-3.13,15.82-6.26,18.98
		c-3.26,3.3-3.81,6.57-3.81,9.32c0,0.42,0,2.32,0,5.22c5.13,1.99,10.7,3.14,16.54,3.14c9.05,0,17.46-2.66,24.54-7.25
		c0-0.37,0-0.69,0-0.86C74.53,83.68,71.79,79.33,69.31,76.85z"/>
</g>
</svg>
