<?xml version="1.0" encoding="utf-8"?>
<!-- Generator: Adobe Illustrator 24.0.2, SVG Export Plug-In . SVG Version: 6.00 Build 0)  -->
<svg version="1.1" id="Layer_1" xmlns="http://www.w3.org/2000/svg" xmlns:xlink="http://www.w3.org/1999/xlink" x="0px" y="0px"
	 viewBox="0 0 100 100" style="enable-background:new 0 0 100 100;" xml:space="preserve">
<style type="text/css">
	.st0{fill:#00599C;}
</style>
<g>
	<path class="st0" d="M50,1.01C22.99,1.01,1,22.99,1,50c0,27.02,21.99,48.99,49,48.99c27.02,0,49-21.98,49-48.99
		C99,22.99,77.01,1.01,50,1.01z M50,91.64C27.04,91.64,8.36,72.96,8.36,50C8.36,27.04,27.04,8.36,50,8.36
		c22.97,0,41.65,18.69,41.65,41.64C91.65,72.96,72.96,91.64,50,91.64z"/>
	<g>
		<path class="st0" d="M54.3,24.31c-0.08,0.04-0.12,0.12-0.12,0.22c0.01,0.1,0.07,0.19,0.16,0.24c3.08,1.53,5.5,4.04,6.79,7.07
			c1.21,2.85,1.33,5.96,0.34,9.02c-0.03,0.09,0,0.2,0.06,0.27c0.07,0.08,0.17,0.1,0.25,0.07c2.82-1.25,3.44-6.06,1.38-10.72
			C61.11,25.83,57.13,23.06,54.3,24.31z"/>
		<g>
			<path class="st0" d="M71.07,34.21c0-11.18-9.43-20.25-21.07-20.25c-11.64,0-21.07,9.07-21.07,20.25c0,5.21,2.04,9.96,5.41,13.55
				l0,0c0,0,3.84,4.48,4.64,12.71c0,0,0,0,0,0c-0.47,0.48-0.89,0.69-0.9,1.26c0,0.23-0.07,2.64,0,4.12
				c0.02,0.47,0.16,0.56,0.54,0.92c0.11,0.89-0.07,0.99,0.14,2.51c0.11,0.84,1.28,1.98,2.45,2.65l0,0h-0.03
				c0,0.22,0.01,0.44,0.01,0.71c0.36,0.46,0.35,0.8,0.26,1.14l17.04,1.65l-17.2-0.29c0.07,0.24,0.21,0.5,0.45,0.81
				c0.17,0.2-0.02,0.31-0.22,0.51l16.43,1.3l-16.67-0.26c0.09,0.27,0.25,0.58,0.54,0.98c0.09,0.14,0.07,0.25-0.02,0.35l15.92,1.04
				H41.42c0.06,0.12,0.13,0.24,0.25,0.38c2.55,3.04,3.27,3.6,5.09,5.54c2.66,0.32,4.31,0.31,5.97,0c1.86-1.67,3.92-3.4,5.21-4.96
				c0.45-0.42,0.59-0.69,0.6-0.9l0,0c0,0,0,0,0-0.01c0-0.02,0-0.03,0-0.05h-0.01c-0.06-0.32-0.44-0.44-0.15-0.73
				c0.64-0.64,0.69-1.07,0.57-1.36l0,0c-0.24-0.44-0.91-0.59-0.65-0.85c0.71-0.74,0.79-1.18,0.66-1.48l0,0
				c-0.24-0.49-1.06-0.63-0.62-1.19c0.77-1,0.49-1.48,0.49-1.48s-0.01-0.07-0.02-0.18c-0.01-0.24-0.01-0.46-0.01-0.65
				c1.17-0.67,2.34-1.81,2.45-2.65c0.21-1.52,0.04-1.63,0.15-2.51c0.37-0.35,0.52-0.44,0.53-0.92c0.06-1.48,0-3.9,0-4.12
				c0-0.08-0.01-0.15-0.02-0.21c-0.01-0.02-0.01-0.04-0.02-0.05c-0.01-0.04-0.02-0.09-0.04-0.13c-0.01-0.01-0.02-0.04-0.03-0.06
				c-0.02-0.03-0.04-0.07-0.06-0.09c-0.01-0.02-0.03-0.04-0.05-0.06c-0.02-0.03-0.04-0.06-0.07-0.09c-0.02-0.01-0.04-0.03-0.05-0.05
				c-0.03-0.04-0.06-0.06-0.1-0.09c-0.02-0.02-0.04-0.03-0.06-0.05c-0.04-0.05-0.09-0.09-0.14-0.14c-0.1-0.08-0.2-0.18-0.29-0.28
				c-1.68,1.51-5.99,1.88-11.04,1.88c-3.15,0-5.72-0.14-7.84-0.62c0.47-8.39-4.24-14.04-4.24-14.04h0.01
				c-2.86-3.05-4.6-7.09-4.6-11.52c0-9.51,8.02-17.22,17.92-17.22c9.9,0,17.93,7.71,17.93,17.22c0,4.43-1.74,8.47-4.6,11.52l0,0
				c0,0-3.38,3.69-4.05,10.71c0.06,0.91,0.42,0.58,0.54,0.91c0.99-7.32,4.43-11.27,4.64-11.5c0.01-0.01,0.01-0.01,0.01-0.01l0,0
				C69.03,44.17,71.07,39.42,71.07,34.21z M51.61,83.61l-4.36,0.19l-1.71-2.33l7.93,0.2L51.61,83.61z"/>
		</g>
	</g>
</g>
</svg>
