<?xml version="1.0" encoding="utf-8"?>
<!-- Generator: Adobe Illustrator 24.0.2, SVG Export Plug-In . SVG Version: 6.00 Build 0)  -->
<svg version="1.1" id="Layer_1" xmlns="http://www.w3.org/2000/svg" xmlns:xlink="http://www.w3.org/1999/xlink" x="0px" y="0px"
	 viewBox="0 0 100 100" style="enable-background:new 0 0 100 100;" xml:space="preserve">
<style type="text/css">
	.st0{fill:#00599C;}
</style>
<g>
	<path class="st0" d="M49.99,1C22.98,1,1,22.97,1,49.99C1,77.02,22.98,99,49.99,99s49-21.98,49-49.01C99,22.97,77.01,1,49.99,1z
		 M49.99,91.65c-22.96,0-41.64-18.68-41.64-41.66c0-22.96,18.68-41.64,41.64-41.64c22.96,0,41.65,18.67,41.65,41.64
		C91.64,72.97,72.96,91.65,49.99,91.65z"/>
	<path class="st0" d="M66.21,36.1c0-0.51,0.16-0.72,0.67-0.68c0.19,0.01,0.39-0.06,0.58-0.13c0.27-0.11,0.52-0.29,0.8-0.37
		c0.3-0.09,0.41-0.25,0.4-0.55c-0.04-1.22-0.1-2.45-0.08-3.67c0.02-0.94-0.37-1.65-1.02-2.24c-2.25-2-4.85-3.1-7.89-3.04
		c-1.99,0.04-3.98,0.07-5.96,0.1c-2.31,0.04-4.62,0.06-6.93,0.1c-4.04,0.07-6.22,0.14-10.27,0.2c-3.11,0.05-6.22,0.07-9.33,0.11
		c-0.07,0-0.14,0-0.2,0.01c-0.99,0.08-1.44,0.56-1.44,1.55c0,1.51,0-0.01,0,1.51c0,0.67,0.03,1.48-0.4,1.48c-0.17,0,0,0.86,0,1.05
		h-3.34v2.49h3.34c0.02,0.16-0.11,3.47,0,3.47c11.55,0,5.25,8.92,4.46,9.07c-1.52,1.66-1.24,2.15-1.22,2.9
		c0.01,0.44,0.05,0.88,0.08,1.31c0.02,0.29,1.16,1.37,2.18,1.39c0.81,0.01,0.9-0.07,1.06-0.85c0.62-3.09,4.14-6.68,6.58-8.75
		c1.06-0.9,2.26-1.56,3.59-2c0.37-0.12,0.52-0.03,0.53,0.39c0.01,1.17,0.06,2.34,0.09,3.52c0,0.2,0,0.41,0,0.61h23.76
		C66.22,42.08,66.23,39.09,66.21,36.1z"/>
	<path class="st0" d="M78.15,58.17c-1.01-0.14-2.02-0.19-3.04-0.3c-0.39-0.04-0.79-0.06-1.15-0.18c-0.76-0.25-0.97-0.61-1-1.41
		c-0.1-2.87-1.09-5.42-2.89-7.64c-0.7-0.86-1.63-1.32-2.7-1.47H41.02c-0.34,0.04-0.67,0.14-0.96,0.42
		c-0.31,0.29-0.66,0.53-0.96,0.83c-2.22,2.19-3.28,4.9-3.35,7.97c-0.02,0.92-0.81,1.58-1.57,1.59c-0.54,0-1.09,0.05-1.63,0.11
		c-0.69,0.08-1.38,0.16-2.06,0.3c-0.39,0.08-0.74,0.32-0.78,0.77c-0.03,0.37-0.07,0.77,0.03,1.11c0.08,0.28,0.3,0.57,0.54,0.73
		c0.3,0.19,0.44,0.36,0.44,0.72c0.01,0.72,0.11,12.69,0.25,26.65c5.73,2.98,12.14,3.28,19.03,3.28c10.81,0,20.58-2.7,27.99-9.48
		c0.05-10.77,0.09-19.95,0.1-20.66c0-0.23,0.09-0.61,0.22-0.65c0.85-0.28,0.74-0.99,0.76-1.6C79.08,58.59,78.82,58.26,78.15,58.17z"
		/>
</g>
</svg>
