<?xml version="1.0" encoding="utf-8"?>
<!-- Generator: Adobe Illustrator 24.0.2, SVG Export Plug-In . SVG Version: 6.00 Build 0)  -->
<svg version="1.1" id="Layer_1" xmlns="http://www.w3.org/2000/svg" xmlns:xlink="http://www.w3.org/1999/xlink" x="0px" y="0px"
	 viewBox="0 0 100 100" style="enable-background:new 0 0 100 100;" xml:space="preserve">
<style type="text/css">
	.st0{fill:#00599C;}
</style>
<g>
	<rect x="42.02" y="48.07" class="st0" width="18.37" height="17.58"/>
	<path class="st0" d="M50.01,11.18c-10.59,0-20.2,4.26-27.21,11.15v10.88h9.79v5.04h36.37v-5.04h3.87v48.15
		c5.82-4.25,10.41-10.07,13.15-16.84V35.47C80.23,21.25,66.28,11.18,50.01,11.18z"/>
	<rect x="46.96" y="39.93" class="st0" width="8.49" height="6.46"/>
	<polygon class="st0" points="47.31,76.01 50.48,76.01 50.48,67.33 45.17,67.33 	"/>
	<polygon class="st0" points="51.93,76.01 55.1,76.01 57.25,67.33 51.93,67.33 	"/>
	<path class="st0" d="M50.08,1h-0.13C22.95,1.04,1.01,22.99,1,49.98v0.04C1.01,77.03,22.98,99,50.01,99C77.03,99,99,77.02,99,50
		C99,23.01,77.06,1.04,50.08,1z M83.41,74.05c-0.03,0.04-0.06,0.09-0.1,0.13c-0.95,1.3-1.97,2.55-3.06,3.73
		c0,0.01-0.01,0.01-0.01,0.02c-0.51,0.55-1.04,1.09-1.58,1.62c-0.09,0.09-0.19,0.18-0.28,0.27c-0.47,0.45-0.96,0.89-1.46,1.32
		c-0.1,0.09-0.2,0.18-0.31,0.27c-0.57,0.49-1.16,0.96-1.76,1.41c-0.01,0.01-0.02,0.02-0.03,0.02c-6.91,5.23-15.5,8.34-24.82,8.34
		C27.29,91.19,8.8,72.71,8.8,50c0-12.29,5.42-23.34,14-30.89l0,0c0,0,0,0,0,0c2.72-2.39,5.75-4.44,9.02-6.05
		c0.01-0.01,0.02-0.01,0.04-0.02c0.45-0.22,0.9-0.43,1.36-0.63c0.13-0.06,0.26-0.12,0.39-0.18c0.4-0.18,0.81-0.34,1.22-0.5
		c0.19-0.08,0.39-0.16,0.58-0.23c0.37-0.14,0.75-0.28,1.13-0.41c0.24-0.08,0.48-0.16,0.72-0.24c0.35-0.12,0.71-0.23,1.07-0.33
		c0.27-0.08,0.55-0.16,0.82-0.23c0.34-0.09,0.68-0.18,1.02-0.27c0.3-0.07,0.61-0.14,0.92-0.21c0.32-0.07,0.65-0.14,0.97-0.21
		c0.34-0.07,0.68-0.12,1.01-0.18C43.39,9.35,43.7,9.3,44,9.25c0.37-0.06,0.75-0.1,1.13-0.14c0.28-0.03,0.56-0.07,0.84-0.1
		c0.44-0.04,0.88-0.07,1.32-0.1c0.23-0.01,0.45-0.04,0.68-0.05c0.67-0.03,1.35-0.05,2.03-0.05c0,0,0.01,0,0.01,0
		c0.93,0,1.85,0.04,2.76,0.1c0.24,0.02,0.47,0.03,0.71,0.05c0.85,0.07,1.69,0.16,2.52,0.28c0.07,0.01,0.13,0.02,0.2,0.03
		c0.9,0.14,1.78,0.31,2.65,0.5c0.21,0.05,0.42,0.1,0.63,0.15c0.79,0.19,1.58,0.39,2.35,0.63c0.09,0.03,0.17,0.05,0.26,0.07
		c0.86,0.26,1.71,0.56,2.54,0.88c0.17,0.06,0.33,0.13,0.5,0.2c0.76,0.3,1.51,0.62,2.25,0.97c0.08,0.04,0.16,0.07,0.23,0.11
		c0.82,0.39,1.63,0.81,2.42,1.26c0.11,0.06,0.22,0.13,0.33,0.19c0.74,0.43,1.47,0.87,2.19,1.34c0.05,0.03,0.1,0.06,0.15,0.1
		c0.78,0.52,1.54,1.06,2.28,1.63c0.05,0.04,0.09,0.07,0.14,0.11c0.72,0.56,1.43,1.14,2.11,1.74c0.02,0.02,0.05,0.04,0.07,0.06
		c1.44,1.28,2.79,2.66,4.04,4.13c0.01,0.01,0.01,0.01,0.02,0.02c2.52,2.96,4.62,6.28,6.23,9.87c0,0,0,0,0,0h0
		c2.3,5.13,3.59,10.8,3.59,16.78c0,7.26-1.89,14.08-5.2,20.01l0,0c0,0,0,0,0,0c-0.38,0.68-0.78,1.35-1.2,2.01
		c-0.04,0.07-0.09,0.14-0.13,0.2C84.26,72.85,83.84,73.46,83.41,74.05z"/>
	<polygon class="st0" points="22.8,19.11 22.8,19.11 22.8,19.11 	"/>
	<path class="st0" d="M70.05,14.03c0.11,0.06,0.22,0.13,0.33,0.19C70.26,14.16,70.16,14.09,70.05,14.03z"/>
	<path class="st0" d="M50.02,8.81C50.02,8.81,50.01,8.81,50.02,8.81c-0.69,0-1.37,0.02-2.04,0.05C48.65,8.83,49.33,8.81,50.02,8.81
		C50.01,8.81,50.02,8.81,50.02,8.81z"/>
	<path class="st0" d="M67.39,12.67c0.08,0.04,0.16,0.07,0.23,0.11C67.55,12.74,67.47,12.71,67.39,12.67z"/>
	<path class="st0" d="M45.97,9.01c0.44-0.04,0.88-0.07,1.32-0.1C46.85,8.94,46.41,8.97,45.97,9.01z"/>
	<path class="st0" d="M72.56,15.56c0.05,0.03,0.1,0.06,0.15,0.1C72.66,15.63,72.61,15.59,72.56,15.56z"/>
	<path class="st0" d="M74.86,82.82c-0.01,0.01-0.02,0.02-0.03,0.02C74.84,82.84,74.85,82.83,74.86,82.82z"/>
	<path class="st0" d="M31.82,13.05c0.01-0.01,0.02-0.01,0.04-0.02C31.85,13.04,31.84,13.05,31.82,13.05z"/>
	<path class="st0" d="M58.86,9.78c0.21,0.05,0.42,0.1,0.63,0.15C59.28,9.87,59.07,9.82,58.86,9.78z"/>
	<path class="st0" d="M34.83,11.72c0.19-0.08,0.39-0.16,0.58-0.23C35.22,11.56,35.03,11.64,34.83,11.72z"/>
	<path class="st0" d="M33.22,12.4c0.13-0.06,0.26-0.12,0.39-0.18C33.48,12.28,33.35,12.34,33.22,12.4z"/>
	<path class="st0" d="M64.64,11.51c0.17,0.06,0.33,0.13,0.5,0.2C64.97,11.64,64.81,11.57,64.64,11.51z"/>
	<path class="st0" d="M75,17.29c0.05,0.04,0.09,0.07,0.14,0.11C75.09,17.36,75.04,17.33,75,17.29z"/>
	<path class="st0" d="M56.01,9.25c0.07,0.01,0.13,0.02,0.2,0.03C56.14,9.27,56.07,9.26,56.01,9.25z"/>
	<path class="st0" d="M61.84,10.55c0.09,0.03,0.17,0.05,0.26,0.07C62.01,10.6,61.93,10.58,61.84,10.55z"/>
	<path class="st0" d="M81.36,23.33c0.01,0.01,0.01,0.01,0.02,0.02C81.37,23.34,81.36,23.34,81.36,23.33z"/>
	<path class="st0" d="M42.07,9.59c0.34-0.07,0.68-0.12,1.01-0.18C42.75,9.46,42.41,9.52,42.07,9.59z"/>
	<path class="st0" d="M84.66,72.22c0.04-0.07,0.09-0.13,0.13-0.2C84.74,72.09,84.7,72.16,84.66,72.22z"/>
	<path class="st0" d="M80.26,77.92c0,0.01-0.01,0.01-0.01,0.02C80.25,77.93,80.25,77.92,80.26,77.92z"/>
	<path class="st0" d="M40.18,10c0.3-0.07,0.61-0.14,0.92-0.21C40.79,9.86,40.49,9.93,40.18,10z"/>
	<path class="st0" d="M38.34,10.5c0.27-0.08,0.55-0.16,0.82-0.23C38.89,10.35,38.61,10.42,38.34,10.5z"/>
	<path class="st0" d="M44,9.25c0.37-0.05,0.75-0.1,1.13-0.14C44.76,9.15,44.38,9.2,44,9.25z"/>
	<path class="st0" d="M83.41,74.05c-0.03,0.04-0.06,0.09-0.1,0.13C83.35,74.14,83.38,74.1,83.41,74.05z"/>
	<path class="st0" d="M77.24,19.14c0.02,0.02,0.05,0.04,0.07,0.06C77.29,19.18,77.27,19.16,77.24,19.14z"/>
	<path class="st0" d="M52.78,8.91c0.24,0.02,0.47,0.03,0.71,0.05C53.25,8.95,53.01,8.93,52.78,8.91z"/>
	<path class="st0" d="M78.66,79.55c-0.09,0.09-0.19,0.18-0.28,0.27C78.47,79.73,78.56,79.64,78.66,79.55z"/>
	<path class="st0" d="M76.92,81.14c-0.1,0.09-0.2,0.18-0.31,0.27C76.72,81.32,76.82,81.23,76.92,81.14z"/>
	<path class="st0" d="M36.55,11.08c0.24-0.08,0.48-0.16,0.72-0.24C37.03,10.91,36.79,11,36.55,11.08z"/>
	<polygon class="st0" points="85.99,70.01 85.99,70.01 85.99,70.01 	"/>
	<polygon class="st0" points="87.61,33.22 87.61,33.22 87.61,33.22 	"/>
</g>
</svg>
