<?xml version="1.0" encoding="utf-8"?>
<!-- Generator: Adobe Illustrator 24.0.2, SVG Export Plug-In . SVG Version: 6.00 Build 0)  -->
<svg version="1.1" id="Layer_1" xmlns="http://www.w3.org/2000/svg" xmlns:xlink="http://www.w3.org/1999/xlink" x="0px" y="0px"
	 viewBox="0 0 100 100" style="enable-background:new 0 0 100 100;" xml:space="preserve">
<style type="text/css">
	.st0{fill:#00599C;}
</style>
<g>
	<path class="st0" d="M50.01,1C22.98,1,1,22.98,1,49.99C1,77.03,22.98,99,50.01,99C77.02,99,99,77.03,99,49.99
		C99,22.98,77.02,1,50.01,1z M41.31,64.31c2.52-0.16,10.49-1.72,12.19-2.04c1.71-0.31,4.25-1.25,5.48-3.27
		c0.37-0.6,1.49-2.32,2.85-4.43c0.47,1.68,0.83,3.45,0.83,5.29c0,10.77-8.77,19.52-19.56,19.52c-10.75,0-19.51-8.75-19.51-19.52
		c0-9.7,7.12-17.72,16.41-19.22c-0.9,5.21-2.11,12.82-2.11,16.96C37.89,64,38.81,64.48,41.31,64.31z M41,59.86
		c0-1.17,0.94-2.1,2.1-2.1c1.21,0,2.15,0.93,2.15,2.1c0,1.16-0.94,2.11-2.15,2.11C41.93,61.97,41,61.02,41,59.86z M50.01,91.66
		c-22.97,0-41.64-18.69-41.64-41.67c0-22.95,18.67-41.64,41.64-41.64c3.52,0,6.93,0.45,10.2,1.27v13.76h-8.27
		c-2.49,0-3.88,1.7-3.88,4.2h2.18v2.65h-0.48c-2.82,0-3.58,1.26-3.58,1.89v0.61c0,0-0.64,0.32-2.51,0.32c-1.73,0-2.61,0.93-2.76,1.9
		c-12.76,1.12-22.79,11.86-22.79,24.91c0,13.78,11.2,25,24.98,25c13.81,0,25.02-11.22,25.02-25c0-3.96-0.95-7.68-2.57-11
		c2.3-3.56,4.39-6.8,4.7-7.37c0.62-1.27,3.27-2.2,5.15-2.2h4.36c0,0,0-4.99,0-5.94c0-0.93-0.65-3.13-3.13-3.13H75.7v-2.65h2.65
		c0-1.71-0.92-4.2-2.65-4.2h-9.25V11.74c14.8,6.39,25.19,21.13,25.19,38.24C91.63,72.97,72.97,91.66,50.01,91.66z"/>
</g>
</svg>
