<?xml version="1.0" encoding="utf-8"?>
<!-- Generator: Adobe Illustrator 24.0.2, SVG Export Plug-In . SVG Version: 6.00 Build 0)  -->
<svg version="1.1" id="Layer_1" xmlns="http://www.w3.org/2000/svg" xmlns:xlink="http://www.w3.org/1999/xlink" x="0px" y="0px"
	 viewBox="0 0 100 100" style="enable-background:new 0 0 100 100;" xml:space="preserve">
<style type="text/css">
	.st0{fill:#00599C;}
</style>
<g>
	<path class="st0" d="M67.38,4.19C42.12-5.4,13.77,7.36,4.19,32.61c-9.59,25.27,3.17,53.62,28.43,63.2
		c13.48,5.11,27.82,3.87,39.74-2.24c7.78-4,14.52-10.06,19.3-17.79c1.62-2.62,3.02-5.41,4.15-8.41
		C105.39,42.12,92.64,13.77,67.38,4.19z M88.94,64.76c-0.57,1.49-1.22,2.92-1.93,4.31c0.01-0.01,0.03,0,0.04-0.01
		c-0.01,0.01-0.03,0.01-0.04,0.01c-0.11,0.2-0.23,0.39-0.34,0.58c-0.14,0.04-0.26,0.07-0.43,0.12c-0.02,0.01-0.09,0.02-0.09,0.02
		l-0.53,0.12c-0.05,0.02-0.09,0.03-0.14,0.04c-0.01-0.01-0.03-0.01-0.04-0.02c-0.08-0.01-0.15-0.03-0.21-0.08
		c-0.01,0-0.03,0-0.04-0.02c-0.01,0-0.01-0.02-0.03-0.03c-0.04-0.04-0.08-0.1-0.11-0.16c-0.01-0.01-0.02-0.03-0.02-0.04
		c-0.03-0.06-0.05-0.15-0.06-0.22c0-0.02,0-0.04-0.01-0.07c0-0.05-0.01-0.09,0-0.12c0-0.02-0.01-0.04,0-0.06c0-0.04,0-0.07,0-0.07
		s0-0.04,0.01-0.11c0.01-0.03,0.02-0.1,0.03-0.15c0.01-0.06,0.02-0.1,0.04-0.2c0.01-0.05,0.04-0.15,0.05-0.21
		c0.02-0.12,0.05-0.24,0.09-0.39c0.07-0.26,0.15-0.55,0.26-0.89c0.06-0.2,0.09-0.37,0.09-0.51c0-0.03-0.01-0.06-0.01-0.09
		c-0.01-0.11-0.04-0.21-0.1-0.27c0,0,0,0-0.01-0.01c-0.06-0.05-0.12-0.07-0.2-0.09c0,0,0,0.01-0.01,0.01
		c-0.07-0.01-0.14-0.01-0.2,0.01c-0.02,0-0.03,0.01-0.05,0.01c-0.05,0.01-0.1,0.02-0.13,0.03c-0.01,0.01-0.03,0.01-0.04,0.01
		c-0.01,0-0.02,0.01-0.03,0.01c-0.03,0-0.06,0-0.09,0c-0.02,0.01-0.03,0-0.05,0.01c-0.09,0.01-0.17,0.03-0.18,0.03
		c0,0-0.23,0.05-0.58,0.14l-0.09,0.09c-0.29,0.08-0.64,0.16-1.04,0.26c-0.16,0.04-0.3,0.03-0.41,0.03
		c-0.03-0.01-0.06-0.02-0.09-0.02c-0.09-0.03-0.15-0.06-0.21-0.1c0-0.01-0.03-0.02-0.03-0.03c-0.01,0-0.01-0.02-0.02-0.03
		c-0.1-0.13-0.13-0.3-0.13-0.45c0.01-0.01,0-0.02,0-0.03c0.01-0.07,0.01-0.13,0.02-0.18c0.01-0.01,0.01-0.01,0.01-0.01
		c0.01-0.05,0.01-0.09,0.01-0.09s-0.07-0.05,0.16-0.7c0.07-0.21,0.19-0.5,0.35-0.86c0.1-0.22,0.14-0.39,0.15-0.54
		c0-0.05,0-0.07,0-0.11c-0.01-0.12-0.04-0.25-0.11-0.32c-0.01,0-0.01-0.01-0.01-0.01c-0.06-0.06-0.15-0.1-0.24-0.12
		c-0.01-0.01-0.01-0.01-0.02-0.01c-0.09-0.01-0.17-0.02-0.25-0.03c-0.01,0.01-0.03,0-0.04,0.01c-0.07,0-0.14,0-0.19,0.01
		c-0.02-0.01-0.03,0-0.04,0.01c-0.04,0-0.08,0.01-0.08,0.01c-0.01,0.01-0.86,0.16-1.98,0.51c-0.16,0.05-0.29,0.07-0.39,0.06
		c-0.03,0-0.05-0.01-0.08-0.01c-0.08-0.01-0.15-0.04-0.2-0.09c-0.01,0-0.01,0-0.03-0.01c-0.01-0.01-0.01-0.02-0.01-0.02
		c-0.04-0.05-0.07-0.1-0.09-0.16c-0.01-0.02-0.01-0.03-0.01-0.05c-0.01-0.06-0.02-0.12-0.02-0.17c0-0.05,0.01-0.07,0.01-0.11
		c0-0.03,0-0.06,0.01-0.08c0.01-0.04,0.01-0.06,0.01-0.08c0.01-0.02,0.01-0.05,0.01-0.05s0.13-0.52,0.34-1.28l0.01-0.02l0.19-0.69
		c0.04-0.17,0.06-0.31,0.06-0.43c-0.01-0.03-0.01-0.06-0.01-0.09c-0.01-0.1-0.04-0.2-0.1-0.26c0-0.01-0.02-0.01-0.03-0.01
		c-0.04-0.04-0.08-0.06-0.13-0.08c-0.01-0.01-0.03-0.01-0.05-0.01c-0.04,0-0.08-0.02-0.12-0.01c-0.02,0-0.04-0.01-0.06-0.01
		c-0.04,0-0.07,0.01-0.09,0.01c-0.01,0-0.02,0.01-0.03,0c-0.03,0.01-0.05,0.01-0.05,0.01c-0.01,0-0.7,0.12-2.08,0.51
		c-0.21,0.05-0.37,0.08-0.51,0.07c-0.03,0-0.05,0-0.08-0.01c-0.12-0.01-0.21-0.04-0.26-0.1c-0.01-0.02-0.03-0.04-0.04-0.06
		c0-0.01-0.01-0.03-0.02-0.04c-0.03-0.07-0.05-0.15-0.06-0.22c0-0.03,0-0.05-0.01-0.08c0-0.01,0-0.01,0-0.02
		c0.01-0.08,0.02-0.15,0.04-0.2c0,0,0,0,0.01-0.01c0.02-0.05,0.04-0.1,0.04-0.1s0.03-0.15,0.07-0.39l0.02-0.04
		c-0.01,0-0.01-0.01-0.01-0.01c0.04-0.22,0.11-0.49,0.18-0.78c0.01-0.02,0.01-0.04,0.01-0.05l-0.07,0.07
		c0.06-0.2,0.12-0.42,0.2-0.67c0.06-0.21,0.09-0.37,0.09-0.51c0-0.03-0.01-0.06-0.01-0.09c0-0.12-0.03-0.21-0.1-0.27c0,0,0,0,0-0.01
		c-0.06-0.05-0.12-0.08-0.2-0.09c0,0-0.01,0.01-0.01,0c-0.06,0-0.14,0-0.2,0.01c-0.02,0-0.03,0.01-0.05,0.01
		c-0.05,0.01-0.09,0.03-0.13,0.04c-0.01,0.01-0.03,0.01-0.04,0.01c-0.03,0.01-0.06,0.03-0.07,0.03c0,0-0.78,0.23-1.98,0.51
		c-0.17,0.04-0.29,0.04-0.41,0.03c-0.04,0-0.06-0.02-0.09-0.02c-0.08-0.02-0.14-0.06-0.21-0.1c-0.01-0.01-0.03-0.01-0.04-0.02
		c-0.01-0.01-0.01-0.02-0.02-0.02c-0.1-0.13-0.12-0.31-0.12-0.46c0-0.01-0.01-0.02,0-0.03c0.01-0.07,0.01-0.13,0.02-0.18
		c0-0.01,0-0.01,0-0.01c0.01-0.06,0.02-0.1,0.02-0.1s-0.08-0.05,0.16-0.69c0.07-0.22,0.19-0.5,0.34-0.87
		c0.1-0.21,0.14-0.39,0.15-0.54c0-0.05,0-0.07,0-0.11c-0.01-0.13-0.04-0.25-0.11-0.32c-0.01-0.01-0.01-0.01-0.01-0.02
		c-0.06-0.06-0.15-0.11-0.24-0.13c-0.01,0-0.01-0.01-0.02-0.01c-0.09-0.01-0.17-0.03-0.26-0.03c-0.01,0-0.03,0-0.04,0
		c-0.07,0-0.14,0-0.19,0.01c-0.01,0-0.03,0-0.04,0.01c-0.04,0-0.08,0.02-0.08,0.02c-0.01,0-0.87,0.16-1.98,0.5
		c-0.16,0.04-0.29,0.06-0.39,0.06c-0.03,0-0.05-0.01-0.08-0.01c-0.08-0.01-0.15-0.04-0.2-0.09c-0.01,0-0.01-0.01-0.03-0.01
		c0-0.02,0-0.02-0.01-0.02c-0.04-0.05-0.07-0.1-0.09-0.17c0-0.02-0.01-0.03-0.01-0.05c-0.01-0.06-0.02-0.12-0.02-0.18
		c0-0.05,0.01-0.07,0.01-0.11c0-0.02,0.01-0.05,0.01-0.08c0-0.04,0-0.05,0.01-0.08c0.01-0.04,0.01-0.05,0.01-0.05
		s0.13-0.52,0.34-1.29l0.01-0.03l0.19-0.68c0.04-0.18,0.06-0.31,0.06-0.44c-0.01-0.03,0-0.06-0.01-0.09
		c-0.02-0.11-0.05-0.21-0.11-0.26c-0.01-0.02-0.02-0.02-0.03-0.03c-0.04-0.04-0.08-0.06-0.13-0.07c-0.01,0-0.04,0-0.06-0.01
		c-0.04,0-0.07-0.02-0.11-0.01c-0.02,0-0.04,0-0.06,0c-0.04,0-0.07,0-0.1,0c-0.01,0.01-0.02,0.01-0.03,0.01
		c-0.03,0.01-0.05,0.01-0.05,0.01c-0.01,0.01-0.69,0.12-2.08,0.51c-0.2,0.05-0.36,0.08-0.5,0.07c-0.03,0-0.05,0-0.08-0.01
		c-0.12-0.01-0.22-0.05-0.27-0.1c-0.01,0-0.02,0-0.02-0.01c-0.07-0.08-0.1-0.19-0.1-0.28c0-0.02,0-0.03,0-0.05
		c0-0.1,0.03-0.2,0.05-0.28c0,0,0,0,0,0c0.02-0.05,0.04-0.1,0.04-0.1s0.03-0.16,0.07-0.39l0.02-0.04c-0.01,0-0.01-0.01-0.01-0.01
		c0.05-0.22,0.12-0.49,0.19-0.77c0-0.02,0.01-0.04,0.01-0.06l-0.11,0.11c0.06-0.24,0.12-0.47,0.2-0.66
		c0.06-0.19,0.08-0.33,0.05-0.45c0-0.02-0.02-0.04-0.03-0.06c-0.02-0.08-0.06-0.14-0.12-0.18c-0.04-0.04-0.11-0.06-0.17-0.08
		c-0.04,0-0.07-0.03-0.11-0.03c-0.1,0-0.2,0-0.28,0.04c-0.29,0.11-1.12,0.33-2.21,0.48c0.24-0.22,0.5-0.47,0.77-0.71
		c0.12-0.11,0.24-0.23,0.35-0.34c0.15-0.15,0.31-0.3,0.47-0.45c0.13-0.14,0.28-0.28,0.41-0.42c0.15-0.15,0.29-0.3,0.46-0.46
		c0.13-0.14,0.28-0.3,0.43-0.45c0.14-0.15,0.29-0.3,0.43-0.46c0.15-0.15,0.32-0.32,0.47-0.49c0.14-0.14,0.28-0.29,0.42-0.44
		c0.16-0.17,0.32-0.35,0.48-0.52c0.14-0.14,0.27-0.28,0.4-0.43c0.17-0.18,0.33-0.37,0.51-0.55c0.1-0.11,0.19-0.22,0.29-0.33
		c0.69-0.76,1.36-1.51,1.99-2.23c0.06-0.06,0.13-0.13,0.19-0.2c0.18-0.2,0.35-0.41,0.53-0.61c0.08-0.1,0.17-0.2,0.25-0.29
		c0.16-0.19,0.32-0.36,0.47-0.54c0.09-0.1,0.18-0.2,0.26-0.3c0.14-0.16,0.27-0.32,0.4-0.46c0.1-0.11,0.18-0.22,0.28-0.32
		c0.1-0.11,0.2-0.22,0.29-0.34c0.16-0.18,0.32-0.37,0.45-0.53c0-0.01,0.02-0.03,0.03-0.03c0.53-0.62,0.9-1.06,1.05-1.24
		c0.16-0.27,0.25-0.52,0.28-0.74c0.01-0.07-0.01-0.13-0.01-0.18c-0.01-0.15-0.02-0.29-0.07-0.42c-0.03-0.06-0.06-0.14-0.1-0.21
		c-0.05-0.11-0.11-0.2-0.18-0.29c-0.07-0.09-0.13-0.18-0.2-0.27c-0.07-0.08-0.13-0.16-0.18-0.23l-0.17-0.25
		c-0.05-0.07-0.1-0.13-0.15-0.2c-0.06-0.07-0.12-0.13-0.19-0.19c-0.04-0.04-0.09-0.08-0.15-0.11c-0.08-0.04-0.18-0.07-0.29-0.1
		c-0.07-0.02-0.13-0.04-0.21-0.05c-0.21-0.02-0.46-0.01-0.79,0.05c-0.26,0.05-0.56,0.17-0.89,0.33c-0.02,0.01-0.03,0.02-0.06,0.03
		c-0.33,0.16-0.69,0.36-1.07,0.61c-0.01,0.01-0.03,0.02-0.05,0.03c-2.14,1.36-4.85,3.76-6.23,5.01c-1,0.99-9.26,9.26-16.05,16.05
		c-0.38,0.39-0.76,0.76-1.13,1.13c-2.36,2.45-4.64,5.01-6.83,7.61c0.09-0.08,0.15-0.12,0.15-0.12c0,0-0.38,0.45-0.94,1.12
		l-0.07,0.07l0,0.01c-1.67,2-4.9,5.82-5.33,6.3l-0.13,0.16c-0.13,0.16-0.31,0.36-0.49,0.57c-0.11,0.13-0.23,0.28-0.34,0.43
		c-0.11,0.15-0.24,0.3-0.36,0.48c-0.14,0.19-0.25,0.39-0.38,0.59c-0.09,0.14-0.18,0.3-0.27,0.44c-0.18,0.36-0.33,0.72-0.41,1.08
		c-0.08,0.36-0.1,0.67-0.07,0.92c0.01,0.09,0.05,0.15,0.07,0.23c0.03,0.15,0.07,0.31,0.12,0.41c0.04,0.06,0.06,0.09,0.09,0.14
		c0.17,0.26,0.36,0.43,0.45,0.5c0.05,0.05,0.11,0.09,0.18,0.13c0.14,0.1,0.32,0.2,0.6,0.34c0.02,0.02,0.03,0.02,0.05,0.03
		c0.16,0.08,0.35,0.17,0.58,0.28c0.11,0.06,0.22,0.08,0.33,0.08c0.77,0.04,1.45-0.87,1.46-0.88l10.07-10.09c0,0,0.12-0.05,0.29-0.11
		L47,65.95l0.01,0c0.27-0.11,0.66-0.25,1.02-0.36c0.14-0.04,0.26-0.03,0.37,0c0.04,0.02,0.08,0.04,0.12,0.06
		c0.03,0.02,0.06,0.02,0.09,0.04c0.02,0.02,0.03,0.05,0.05,0.07c0.08,0.07,0.13,0.14,0.18,0.24c0.01,0.02,0.03,0.05,0.05,0.07
		c0.04,0.11,0.07,0.21,0.06,0.28c0,0.06-0.02,0.13-0.03,0.22c-0.01,0.04-0.03,0.12-0.04,0.18c-0.02,0.05-0.02,0.08-0.03,0.14
		c-0.03,0.12-0.08,0.27-0.14,0.43c-0.01,0.04-0.02,0.05-0.03,0.1c-0.02,0.06-0.04,0.12-0.07,0.19l0.08-0.08
		c-0.04,0.11-0.08,0.23-0.13,0.37c-0.07,0.21-0.11,0.37-0.11,0.53c0,0.04,0,0.06-0.01,0.09c0.01,0.14,0.04,0.24,0.11,0.32
		c0,0.01,0.01,0.01,0.02,0.02c0.08,0.08,0.19,0.12,0.35,0.13c0-0.01,0-0.01,0-0.01c0.16,0,0.35-0.02,0.58-0.1
		c0.15-0.05,0.26-0.07,0.38-0.12l1.26-0.41c0.17-0.06,0.31-0.07,0.43-0.07c0.03,0,0.06,0.01,0.09,0.02c0.11,0.02,0.2,0.06,0.26,0.11
		c0.02,0.01,0.03,0.01,0.03,0.01c0.01,0,0.01,0.01,0.01,0.01c0.06,0.06,0.11,0.14,0.15,0.22c0.01,0.03,0.02,0.05,0.02,0.07
		c0.02,0.07,0.04,0.13,0.05,0.2c0.01,0.02,0.01,0.05,0.02,0.07c0,0.07,0,0.13,0,0.19l0,0.01c0,0.07-0.01,0.12-0.02,0.14
		c-0.01,0.07-0.05,0.18-0.09,0.34l-0.03,0.12l-0.39,1.31c-0.06,0.21-0.07,0.37-0.07,0.51c0,0.03,0,0.07,0,0.09
		c0.02,0.13,0.06,0.22,0.13,0.3c0.01,0.01,0.03,0.02,0.04,0.02c0.09,0.08,0.22,0.12,0.34,0.12c0.03,0,0.04,0,0.06,0.01
		c0.14-0.01,0.3-0.04,0.41-0.09c0.16-0.05,0.3-0.1,0.44-0.15l1.09-0.4c0.1-0.04,0.2-0.07,0.3-0.07c0.02,0,0.05,0,0.07,0
		c0.07,0,0.13,0,0.19,0.02c0.03,0,0.05,0.02,0.08,0.03c0.05,0.02,0.09,0.04,0.13,0.05c0.03,0.02,0.06,0.04,0.08,0.05
		c0.02,0.01,0.04,0.03,0.06,0.04c0.01,0,0.01,0.01,0.02,0.02c0.12,0.11,0.21,0.25,0.27,0.38c0.01,0,0.01,0.01,0.01,0.02
		c0.07,0.14,0.09,0.28,0.07,0.37c-0.03,0.17-0.1,0.36-0.19,0.64c-0.11,0.28-0.25,0.65-0.46,1.16c-0.1,0.26-0.13,0.46-0.11,0.62
		c0.01,0.01,0.01,0.02,0.01,0.03c0.02,0.13,0.08,0.24,0.16,0.31c0.07,0.05,0.14,0.08,0.22,0.1c0.04,0.02,0.08,0.04,0.11,0.04
		c0.14,0.02,0.26,0.01,0.37-0.04l0.44-0.16c0.22-0.09,0.53-0.21,1.27-0.49c0.21-0.08,0.37-0.1,0.53-0.1c0.03,0,0.06,0.01,0.09,0.01
		c0.16,0.01,0.27,0.05,0.36,0.12c0.01,0.01,0.01,0.01,0.01,0.01c0.03,0.02,0.04,0.05,0.06,0.07c0.02,0.04,0.06,0.07,0.08,0.12
		c0.02,0.04,0.03,0.06,0.05,0.1c0.01,0.04,0.03,0.08,0.03,0.12c0.01,0.04,0.02,0.07,0.03,0.1c0,0.05,0.01,0.09,0.01,0.12
		c0,0.03,0,0.05,0,0.08c0,0.06-0.01,0.11-0.02,0.14l-0.02,0.09c-0.01,0.02-0.01,0.05-0.02,0.08c-0.01,0.04-0.01,0.06-0.03,0.1
		c-0.01,0.04-0.03,0.12-0.05,0.2c-0.01,0.02-0.02,0.06-0.03,0.08c-0.03,0.09-0.06,0.18-0.1,0.31l-0.12,0.12
		c-0.06,0.18-0.13,0.38-0.21,0.61c-0.07,0.21-0.1,0.37-0.1,0.52c-0.01,0.04-0.01,0.07-0.01,0.09c0.01,0.08,0.02,0.15,0.04,0.2
		c0.01,0.11,0.04,0.21,0.1,0.27c0.01,0.02,0.02,0.02,0.04,0.04c0.09,0.07,0.2,0.1,0.32,0.1c0.02,0,0.04,0,0.05,0
		c0.14-0.01,0.27-0.05,0.39-0.09c0.1-0.03,0.15-0.04,0.23-0.06l1.43-0.49c0.16-0.06,0.3-0.08,0.41-0.09l0.11-0.11
		c0.01,0,0.01,0,0.01,0c0.02,0,0.06,0.02,0.09,0.02c0.1,0.02,0.2,0.05,0.26,0.1c0.02,0.01,0.03,0.01,0.04,0.02
		c0.01,0,0.01,0.01,0.01,0.01c0.06,0.06,0.12,0.14,0.15,0.21c0,0.04,0.01,0.05,0.02,0.07c0.02,0.07,0.04,0.13,0.05,0.2
		c0.01,0.02,0.01,0.05,0.02,0.07c0,0.08,0,0.14,0,0.2l0,0.01c0,0.06,0,0.12-0.01,0.14c-0.02,0.07-0.05,0.19-0.09,0.34l-0.04,0.13
		l-0.38,1.31c-0.06,0.2-0.07,0.36-0.07,0.51c0,0.03,0.01,0.06,0.01,0.08c0.02,0.13,0.06,0.22,0.13,0.3
		c0.01,0.01,0.03,0.02,0.03,0.03c0.1,0.08,0.22,0.12,0.34,0.12c0.03,0,0.05,0,0.06,0.01c0.14-0.01,0.3-0.04,0.42-0.09
		c0.16-0.05,0.3-0.09,0.44-0.14l1.09-0.4c0.1-0.04,0.2-0.07,0.3-0.07c0.02-0.01,0.05-0.01,0.07-0.01c0.07,0.01,0.13,0.01,0.19,0.03
		c0.03,0,0.05,0.02,0.08,0.03c0.05,0.02,0.09,0.04,0.13,0.05c0.03,0.02,0.05,0.04,0.07,0.06c0.02,0.01,0.05,0.03,0.06,0.04
		c0.01,0.01,0,0.01,0.02,0.02c0.12,0.11,0.21,0.26,0.28,0.39c0,0,0.01,0.01,0.01,0.03c0.07,0.14,0.09,0.28,0.07,0.37
		c-0.03,0.16-0.1,0.35-0.19,0.64c-0.1,0.28-0.26,0.65-0.46,1.16c-0.11,0.26-0.13,0.46-0.11,0.61c0.01,0.01,0.01,0.02,0.01,0.02
		c0.03,0.14,0.08,0.23,0.16,0.32c0.07,0.05,0.14,0.08,0.22,0.1c0.04,0.01,0.08,0.04,0.12,0.04c0.13,0.01,0.26,0,0.37-0.04l0.44-0.16
		c0.22-0.09,0.53-0.21,1.27-0.48c0.17-0.07,0.32-0.1,0.45-0.1c0.11,0.02,0.18,0.07,0.25,0.12c0,0,0,0.01,0.01,0.01
		c0.01,0.01,0.02,0.04,0.03,0.04c0.04,0.06,0.08,0.11,0.1,0.16c0.01,0.02,0.01,0.06,0.03,0.07c0.01,0.06,0.03,0.12,0.03,0.18
		c0,0.03,0.01,0.05,0.01,0.08c0,0.05,0,0.1,0,0.15c0,0.03,0,0.05-0.01,0.07c0,0.07-0.01,0.12-0.03,0.15l-0.04,0.21
		c-0.01,0.07-0.04,0.17-0.06,0.27c0,0.03-0.01,0.06-0.03,0.1c-0.01,0.1-0.05,0.2-0.1,0.33c-0.01,0.05-0.02,0.1-0.05,0.16
		c-0.07,0.18-0.15,0.4-0.26,0.65c-0.09,0.19-0.13,0.34-0.14,0.49c-0.01,0.02-0.01,0.05-0.01,0.08c0,0.12,0.02,0.22,0.09,0.3
		c0.01,0.01,0.03,0.03,0.04,0.04c0.08,0.07,0.19,0.11,0.31,0.13c0.02,0,0.04,0.01,0.04,0c0.07,0.01,0.15,0,0.22-0.01
		c0.04,0.01,0.08,0.02,0.12,0.01c0.02,0,0.04-0.01,0.05,0c0.04,0,0.07-0.01,0.1-0.02c-9.87,4.65-21.51,5.5-32.49,1.33
		C13.76,80.8,2.92,56.7,11.07,35.22c8.14-21.47,32.24-32.31,53.71-24.16C86.25,19.21,97.09,43.3,88.94,64.76z"/>
	<path class="st0" d="M46.41,55.23c0.34-0.34,0.69-0.68,1.03-1.03c5.97-5.96,13.17-13.16,14.58-14.57c0.51-1.08,1.13-3.02,0.41-4.49
		c-0.01-0.03-0.01-0.05-0.03-0.08c-0.14-0.27-0.33-0.52-0.58-0.74c-1.22-1.67-7.95-8.36-10.6-10.79c-0.18-0.15-0.35-0.27-0.5-0.37
		c-0.06-0.04-0.12-0.06-0.18-0.09c-0.11-0.05-0.21-0.11-0.31-0.14c-0.07-0.02-0.14-0.03-0.21-0.05c-0.08-0.03-0.18-0.04-0.27-0.06
		c-0.08,0-0.14,0-0.22-0.01c-0.1,0-0.18,0-0.27,0.01c-0.07,0-0.14,0-0.22,0.02c-0.1,0.01-0.2,0.03-0.3,0.05
		c-0.07,0.01-0.13,0.02-0.19,0.04c-0.14,0.04-0.3,0.08-0.44,0.12c-0.03,0.01-0.05,0.02-0.08,0.03c-0.38,0.12-0.8,0.27-1.27,0.43
		c-0.28,0.13-0.58,0.29-0.87,0.46c-0.07,0.04-0.14,0.09-0.21,0.12c-0.25,0.14-0.48,0.3-0.73,0.47c-0.07,0.04-0.15,0.1-0.22,0.15
		c-0.24,0.17-0.5,0.34-0.74,0.52c-0.07,0.04-0.13,0.09-0.19,0.14c-0.25,0.2-0.52,0.39-0.76,0.58c-0.04,0.04-0.09,0.07-0.14,0.11
		c-0.26,0.21-0.5,0.4-0.74,0.59c-0.03,0.02-0.06,0.06-0.09,0.07c-0.21,0.17-0.4,0.33-0.57,0.48c-0.25,0.2-0.47,0.39-0.65,0.54
		l-0.44,0.36c0.01-0.04,0.01-0.08,0.02-0.13l-16.6,16.6c-0.01,0.06-0.03,0.11-0.04,0.17c-0.33,0.33-0.64,0.7-0.94,1.07
		c-0.15,0.19-0.3,0.41-0.46,0.61c-0.15,0.22-0.32,0.43-0.46,0.66c-0.17,0.26-0.33,0.57-0.48,0.85c-0.11,0.2-0.23,0.39-0.33,0.61
		c-0.25,0.51-0.46,1.06-0.64,1.63c-0.1,0.36-0.15,0.72-0.16,1.06c0,0.08-0.01,0.15-0.01,0.23c0,0.33,0.04,0.66,0.12,0.97
		c0.02,0.07,0.03,0.11,0.05,0.18c0.11,0.32,0.23,0.65,0.41,0.95c0.02,0.04,0.05,0.08,0.08,0.11c0.21,0.35,0.45,0.67,0.76,1
		c0.82,0.86,9.31,9.27,9.96,9.92c0.17,0.17,0.34,0.35,0.51,0.49c0,0.01,0.01,0.01,0.02,0.02c0.16,0.14,0.32,0.27,0.49,0.37
		c0.06,0.04,0.13,0.06,0.18,0.09c0.11,0.06,0.22,0.13,0.35,0.16c0.18,0.05,0.37,0.07,0.57,0.05c0.18-0.03,0.39-0.06,0.6-0.09
		c0.11-0.03,0.25-0.05,0.38-0.09c0.13-0.02,0.26-0.05,0.4-0.09c0.18-0.04,0.38-0.1,0.57-0.16c0.11-0.03,0.22-0.06,0.32-0.1
		c0.31-0.1,0.62-0.22,0.91-0.36c0.13-0.06,0.28-0.15,0.45-0.25c0.06-0.04,0.12-0.09,0.19-0.13c0.11-0.07,0.22-0.15,0.35-0.23
		c0.48-0.34,1-0.74,1.45-1.11C41.35,60.3,44.1,57.97,46.41,55.23z"/>
</g>
</svg>
