<?xml version="1.0" encoding="utf-8"?>
<!-- Generator: Adobe Illustrator 24.0.2, SVG Export Plug-In . SVG Version: 6.00 Build 0)  -->
<svg version="1.1" id="Layer_1" xmlns="http://www.w3.org/2000/svg" xmlns:xlink="http://www.w3.org/1999/xlink" x="0px" y="0px"
	 viewBox="0 0 100 100" style="enable-background:new 0 0 100 100;" xml:space="preserve">
<style type="text/css">
	.st0{fill:#00599C;}
</style>
<g>
	<g>
		<path class="st0" d="M50,1C22.98,1,1,22.98,1,50c0,27.02,21.98,49,49,49c27.03,0,49-21.98,49-49C99,22.98,77.03,1,50,1z M50,91.18
			C27.28,91.18,8.8,72.71,8.8,50C8.8,27.28,27.28,8.81,50,8.81c22.72,0,41.18,18.47,41.18,41.19C91.18,72.71,72.72,91.18,50,91.18z"
			/>
	</g>
	<g>
		<path class="st0" d="M75.33,50c-0.05-0.92-0.07-1.83-0.16-2.74c1.43-0.69,2.84-1.46,4.23-2.33c-0.36-2.21-1.04-4.38-1.88-6.46
			c-1.64,0.03-3.27,0.15-4.85,0.35c-0.36-0.84-0.87-1.6-1.35-2.39c-0.46-0.79-1.06-1.49-1.59-2.23c0.84-1.36,1.59-2.76,2.29-4.24
			c-1.49-1.66-3.23-3.1-5.05-4.4c-1.36,0.89-2.66,1.88-3.89,2.9c-0.76-0.5-1.6-0.9-2.43-1.28c-0.81-0.43-1.71-0.69-2.56-1.01
			c-0.01-1.63-0.14-3.19-0.36-4.81c-2.17-0.6-4.42-0.88-6.65-0.96c-0.66,1.47-1.22,2.98-1.69,4.53c-0.92,0.04-1.83,0.07-2.73,0.24
			c-0.92,0.13-1.82,0.28-2.71,0.54c-0.87-1.32-1.86-2.66-2.9-3.88c-2.14,0.72-4.21,1.62-6.11,2.82c0.25,1.61,0.57,3.16,1.01,4.71
			c-0.73,0.56-1.5,1.06-2.17,1.69c-0.68,0.61-1.38,1.22-1.97,1.91c-1.45-0.64-2.99-1.21-4.54-1.7c-1.38,1.76-2.65,3.63-3.62,5.65
			c1.08,1.23,2.19,2.36,3.39,3.43c-0.31,0.86-0.67,1.7-0.91,2.6c-0.21,0.89-0.52,1.77-0.63,2.69c-1.57,0.24-3.15,0.59-4.73,1.03
			c-0.24,2.24-0.24,4.47,0,6.7c1.58,0.44,3.17,0.79,4.73,1.04c0.1,0.92,0.41,1.79,0.63,2.69c0.23,0.87,0.6,1.73,0.91,2.59
			c-1.19,1.06-2.31,2.19-3.39,3.42c0.97,2.02,2.23,3.89,3.62,5.65c1.55-0.49,3.09-1.06,4.54-1.69c0.6,0.7,1.3,1.29,1.97,1.91
			c0.67,0.64,1.44,1.13,2.17,1.7c-0.45,1.54-0.76,3.08-1.01,4.7c1.9,1.19,3.97,2.08,6.11,2.81c1.04-1.22,2.03-2.56,2.9-3.87
			c0.89,0.26,1.79,0.41,2.71,0.53c0.91,0.18,1.82,0.21,2.73,0.25c0.47,1.54,1.03,3.06,1.69,4.52c2.23-0.07,4.48-0.35,6.65-0.95
			c0.22-1.63,0.35-3.19,0.36-4.82c0.85-0.33,1.75-0.58,2.56-1c0.83-0.41,1.67-0.79,2.43-1.29c1.23,1.03,2.53,2.01,3.89,2.9
			c1.82-1.3,3.56-2.73,5.05-4.41c-0.69-1.48-1.45-2.86-2.29-4.23c0.53-0.74,1.14-1.43,1.59-2.23c0.48-0.79,0.99-1.54,1.35-2.39
			c1.58,0.2,3.21,0.31,4.85,0.34c0.84-2.08,1.51-4.24,1.88-6.46c-1.39-0.87-2.8-1.64-4.23-2.32C75.26,51.83,75.28,50.91,75.33,50z
			 M56.22,63.14c-2.49,1.12-5.33,1.58-8.06,1.15c-2.72-0.37-5.31-1.57-7.4-3.38c-2.09-1.8-3.63-4.22-4.4-6.85
			c-0.78-2.63-0.78-5.51-0.01-8.15c0.78-2.61,2.32-5.03,4.41-6.84c2.09-1.8,4.67-3.01,7.4-3.36c2.73-0.44,5.58,0.02,8.06,1.15
			c2.5,1.13,4.66,3.03,6.16,5.33c1.5,2.32,2.26,5.04,2.3,7.81c-0.04,2.77-0.8,5.49-2.3,7.8C60.88,60.12,58.72,62,56.22,63.14z"/>
		<path class="st0" d="M61.37,42.83c-1.36-2.12-3.35-3.86-5.65-4.9c-2.28-1.03-4.88-1.45-7.39-1.05c-2.5,0.33-4.86,1.44-6.78,3.09
			c-1.92,1.65-3.33,3.88-4.04,6.29c-0.72,2.41-0.72,5.07,0,7.48c0.71,2.4,2.12,4.62,4.04,6.28c1.91,1.65,4.28,2.77,6.79,3.09
			c2.5,0.4,5.1-0.02,7.38-1.05c2.3-1.04,4.29-2.78,5.65-4.9c1.39-2.12,2.08-4.61,2.12-7.16C63.44,47.45,62.76,44.96,61.37,42.83z
			 M54.6,59.62c-1.8,0.82-3.89,1.16-5.9,0.84c-2-0.27-3.88-1.14-5.41-2.47c-1.54-1.33-2.67-3.11-3.23-5.01
			c-0.57-1.91-0.57-4.06,0-5.97c0.56-1.92,1.7-3.68,3.23-5.01c1.53-1.32,3.41-2.21,5.41-2.46c2.01-0.34,4.1,0.01,5.9,0.83
			c1.83,0.82,3.43,2.22,4.52,3.92c1.1,1.7,1.65,3.66,1.68,5.71c-0.04,2.04-0.58,4.01-1.68,5.71C58.03,57.4,56.44,58.79,54.6,59.62z"
			/>
	</g>
</g>
</svg>
