<?xml version="1.0" encoding="utf-8"?>
<!-- Generator: Adobe Illustrator 24.0.2, SVG Export Plug-In . SVG Version: 6.00 Build 0)  -->
<svg version="1.1" id="Layer_1" xmlns="http://www.w3.org/2000/svg" xmlns:xlink="http://www.w3.org/1999/xlink" x="0px" y="0px"
	 viewBox="0 0 100 100" style="enable-background:new 0 0 100 100;" xml:space="preserve">
<style type="text/css">
	.st0{fill:#00599C;}
</style>
<g>
	<path class="st0" d="M1,50c0,27.01,22,49,49,49c27.01,0,49-21.99,49-49C99,22.99,77.01,1,50,1C23,1,1,22.99,1,50z M8.37,50
		C8.37,27.03,27.03,8.36,50,8.36c22.97,0,41.64,18.67,41.64,41.64c0,22.97-18.67,41.64-41.64,41.64C27.03,91.64,8.37,72.97,8.37,50z
		"/>
	<path class="st0" d="M77.87,62.24l1.23-1.62c1.44-1.9,1.08-4.63-0.82-6.05l-44.1-33.56c-1.9-1.43-4.63-1.07-6.06,0.83l-2.91,3.81
		c-1.45,1.89-1.07,4.57,0.82,6.05l44.15,33.57c1.89,1.42,4.6,1.06,6.02-0.83l0.48-0.61c0.41,0.33,0.79,0.62,1.06,0.81
		c-0.86,1.13-3.65,4.79-4.28,5.64C72.2,69.9,38.32,59.91,38.32,59.91l-7.2,9.46l-0.44-0.34c-0.71-0.56-1.97-0.13-2.83,0.98
		L17.67,81.69c1.99,2.08,4.17,3.92,6.53,5.56l9-12.98c0.85-1.1,1.01-2.43,0.35-2.99l-0.86-0.65c1.96-2.61,5.82-7.7,6.37-8.42
		c1.27,0.36,35.14,10.37,35.14,10.37l6.32-8.32L77.87,62.24z"/>
</g>
</svg>
