<?xml version="1.0" encoding="utf-8"?>
<!-- Generator: Adobe Illustrator 24.0.2, SVG Export Plug-In . SVG Version: 6.00 Build 0)  -->
<svg version="1.1" id="Layer_1" xmlns="http://www.w3.org/2000/svg" xmlns:xlink="http://www.w3.org/1999/xlink" x="0px" y="0px"
	 viewBox="0 0 100 100" style="enable-background:new 0 0 100 100;" xml:space="preserve">
<style type="text/css">
	.st0{fill:#00599C;}
</style>
<g>
	<g>
		<polygon class="st0" points="59.86,40.33 45.13,37.59 45.13,43.41 35.19,41.64 35.19,35.75 20.14,32.96 20.14,73.99 59.86,81.29 
					"/>
		<polygon class="st0" points="35.76,33.67 35.82,33.63 53.95,21.19 39.36,18.71 21.23,30.92 21.18,30.95 		"/>
		<polygon class="st0" points="60.25,38.24 60.59,38 78.77,25.4 64.25,22.94 45.89,35.5 45.82,35.55 		"/>
		<polygon class="st0" points="62.3,80.85 79.86,68.24 79.86,27.3 62.3,39.6 		"/>
	</g>
	<path class="st0" d="M50,1C22.99,1,1,22.98,1,50c0,27.02,21.99,49,49,49c27.02,0,49-21.98,49-49C99,22.98,77.01,1,50,1z M50,91.64
		C27.04,91.64,8.35,72.97,8.35,50C8.35,27.04,27.04,8.36,50,8.36c22.97,0,41.65,18.68,41.65,41.64C91.65,72.97,72.96,91.64,50,91.64
		z"/>
</g>
</svg>
