<?xml version="1.0" encoding="utf-8"?>
<!-- Generator: Adobe Illustrator 24.0.2, SVG Export Plug-In . SVG Version: 6.00 Build 0)  -->
<svg version="1.1" id="Layer_1" xmlns="http://www.w3.org/2000/svg" xmlns:xlink="http://www.w3.org/1999/xlink" x="0px" y="0px"
	 viewBox="0 0 100 100" style="enable-background:new 0 0 100 100;" xml:space="preserve">
<style type="text/css">
	.st0{fill:#00599C;}
</style>
<g>
	<path class="st0" d="M87.33,18.33c-2.69-3.16-5.8-5.97-9.19-8.38C70.17,4.34,60.47,1,49.99,1C23,1,1,22.98,1,50
		c0,27,22,49,48.99,49C77,99,99,77,99,50C99,37.92,94.57,26.87,87.33,18.33z M49.99,91.65C27.03,91.65,8.37,72.97,8.37,50
		c0-22.96,18.66-41.63,41.63-41.63c6.97,0,13.57,1.74,19.33,4.78c-2.09,0.74-4.21,1.51-6.14,2.39c-1.23,0.55-3.16,1.38-2.66,3.43
		c0.24,0.08,0.29-0.05,0.41-0.18c-0.04-0.05-0.16-0.01-0.13-0.13c0.37-0.52,2.19,0.27,2.19,0.27c0.32,0.14,7.61,3.88,7.29,4.28
		c-1.4,1.33-8.78,9.68-11.47,11.18c0.09-0.11-3.59,1.74-3.59,1.67c0-0.12-0.23-4.26-0.32-4.33c0-0.03,0.07-0.56,0.05-0.71
		c-0.05-0.32-0.39-0.75-0.63-0.96c-0.67-0.64-2.6-1.56-2.47-1.7c0.13-0.14,8.97-8.61,10.07-9.94c0.17-0.23-1.38,0.25-1.35,0.19
		c-1.81,1.58-7.31,7.85-9.47,8.98c-0.73-0.5-1.77-0.98-2.99-0.8c-0.74,0.12-1.51,0.68-2.1,0.84c-0.08,0.11-0.12,0.29-0.24,0.35
		c-1.46,0.09-2.28,0.83-2.89,1.81c-0.43,0.09-0.81,0.21-1.27,0.26c-0.25,0.42-0.17,0.87-0.4,1.23c-0.16,0.25-0.45,0.37-0.61,0.54
		c-0.39,0.39-0.74,0.96-0.81,1.73c-0.02,0.37,0.13,0.65,0.14,1c0.02,0.31-0.25,0.79-0.18,1.28l-0.39,1.56
		c-0.13,1.16,0.22,2.19,0.88,2.72c0.11,1.62-0.03,3.45-0.14,5.16c-0.04,0.79-0.19,1.01-0.86,1.12c-0.97,0.16-2.24,0.17-2.91,0.67
		c-1.98-0.42-3.62,0.31-5.02,0.92c-0.9,0.36-1.76,0.77-2.28,1.23c-0.8,0.7-1.27,1.58-1.73,2.49c-0.12,0.25-0.17,0.58-0.34,0.83
		c-0.45,0.66-1.97,1-2.86,1.33c-1.19,0.44-3.87,2.65-3.92,2.76c0.14,0.03,4.26-2.96,7.88,0.93c0.5,0.45,2.04,2.66,2.2,3.36
		c-1.19-1.3-4.62-6.48-9.48-3.71c-3.25,2-1.72,8.76-1.75,8.73c0.35,1.88,0.66,2.99,1.5,5c0.19,0.46,0.75,1.71,0.89,1.92
		c1.48,2.93,3.69,5.54,6.64,7.18c1.65-0.13,3.07,0.12,4.53-0.09c0.69-0.1,1.39-0.55,2.06-0.84c0.72-0.33,1.42-0.62,2.07-0.87
		c0.97,0.53,1.95,1.06,3.34,1.06c2.43,0,5.01-1.27,6.25-2.31c0.42-0.35,0.79-0.98,1.23-1.27c0.4-0.27,0.93-0.38,1.33-0.62
		c0.63-0.4,1.2-0.81,1.48-1.49c2.27-1.01,5-2.02,7.37-3.09c0.7-0.32,1.81-0.8,2.21-1.29c0.49-0.61,0.54-1.87,1.36-2.06
		c0.57-0.15,1.11,0.26,1.75,0.17c0.13-0.01,0.3-0.05,0.4-0.08c0.69-0.24,1.36-0.64,2.06-0.93c1.5-0.64,2.73-1.14,4.25-1.78
		c0.73-0.29,1.55-0.55,2.05-0.96c0.79-0.65,1.42-1.83,1.89-2.78c0.95-1.86,1.4-3.82,1.29-6.09c-0.18-3.25-1.3-5.42-2.36-7.94v-0.23
		c-0.85-2.19-3.14-4.12-4.99-5.82c-0.19-0.17-0.29-0.4-0.48-0.54c-0.52-0.37-1.42-0.47-2.03-0.54c-0.9-0.1-3.04-0.33-3.83-0.18
		c-0.9,0.18-1.86,0.76-2.81,1.12c-0.97,0.37-1.96,0.71-2.88,1.06c0.32-1.43-0.53-2.36-1.25-3.02c2.69-1.37,5.58-2.43,7.82-4.5
		c1.85-1.58,6.71-7.41,7.7-8.31c1.44,0.64,2.28-0.29,3.3-0.96c1.98-1.26,4.42-2.24,6.47-3.18c0.18-0.08,0.37-0.15,0.54-0.23
		c7.08,7.46,11.43,17.5,11.43,28.56C91.64,72.97,72.97,91.65,49.99,91.65z M29.95,76.9c-3.42,1.27-11.51-11.68-7.83-18.26
		C20.44,68.18,27,75.83,29.95,76.9z M24.12,58.58C22.44,68.11,29,75.04,31.99,76.1C28.53,77.37,20.44,65.15,24.12,58.58z
		 M30.42,61.18c0.26,0.27,2.47,2,3.25,10.78C31.81,61.79,30.54,61.55,30.42,61.18z M29.18,51.84c0.07,0,7.95,0.77,10.17,9.96
		C35.89,52.55,29.34,52.2,29.18,51.84z M36.61,47.92c2.29,0.96,5.29,1.31,6.85,7.15C41.32,50.57,39.28,48.87,36.61,47.92z
		 M42.34,31.41c-0.43-0.3-0.09-1.17,0.3-0.88c0.4,0.32,1.02,1.96,4.26,2.53c3.23,0.54,5.78-0.32,6.24-0.41
		c0.5-0.07,0.25,0.83-0.08,0.84c-0.33,0.02-3.5,0.84-6.43,0.28C43.68,33.31,42.75,31.73,42.34,31.41z"/>
</g>
</svg>
