<?xml version="1.0" encoding="utf-8"?>
<!-- Generator: Adobe Illustrator 24.0.2, SVG Export Plug-In . SVG Version: 6.00 Build 0)  -->
<svg version="1.1" id="Layer_1" xmlns="http://www.w3.org/2000/svg" xmlns:xlink="http://www.w3.org/1999/xlink" x="0px" y="0px"
	 viewBox="0 0 100 100" style="enable-background:new 0 0 100 100;" xml:space="preserve">
<style type="text/css">
	.st0{fill:#00599C;}
</style>
<g>
	<g>
		<path class="st0" d="M50.08,1h-0.13C22.95,1.04,1.01,22.99,1,49.98v0.04C1.01,77.03,22.98,99,50.01,99C77.03,99,99,77.02,99,50
			C99,23.01,77.06,1.04,50.08,1z M76.05,81.64C76.05,81.64,76.05,81.65,76.05,81.64c-1.73,1.43-3.54,2.71-5.49,3.84
			c-0.2,0.12-0.42,0.22-0.63,0.34c-1.76,0.98-3.55,1.88-5.45,2.6c-0.81,0.32-1.67,0.51-2.51,0.78c-1.43,0.44-2.84,0.93-4.33,1.21
			c-2.47,0.48-5.02,0.77-7.64,0.77c-2.62,0-5.16-0.29-7.64-0.77c-1.5-0.28-2.91-0.77-4.35-1.21c-0.83-0.26-1.69-0.46-2.49-0.78
			c-1.91-0.72-3.7-1.63-5.46-2.61c-0.2-0.12-0.42-0.22-0.62-0.34C17.17,78.34,8.8,65.19,8.8,50c0-22.71,18.49-41.19,41.21-41.19
			c22.71,0,41.18,18.48,41.18,41.19C91.19,62.78,85.22,74.08,76.05,81.64z"/>
	</g>
	<g>
		<path class="st0" d="M41.21,64.37v0.46l0.41,0.05l0.21,0.21l-0.26,0.21c0,0-1.08,0.05-1.59,0.15c-0.51,0.1-1.7,0.77-1.7,0.77
			l-0.1,0.26v11.35l0.15,0.26l1.7,1.23v2.16c0,0,0.1,0.46,0.82,0.62c0.72,0.15,5.65,0.57,8.89,0.57s8.43-0.31,8.99-0.41
			c0.57-0.1,1.13-0.41,1.13-0.72c0-0.31,0-2.21,0-2.21l1.64-1.08l0.21-0.36V66.53l-0.1-0.31c0,0-1.08-0.62-1.59-0.77
			c-0.51-0.15-1.28-0.15-1.28-0.15l0.21-0.31l-0.87-0.46l0.57-0.51l-0.05-0.16H41.87L41.21,64.37z"/>
		<path class="st0" d="M63.67,38.95c0,0-0.15-1.44-0.15-1.95c0-0.51-0.26-0.67-0.51-1.23c-0.12-0.27-0.21-0.41-0.67-0.41
			s-23.94,0-24.51,0c-0.57,0-0.51,0.15-0.77,0.51c-0.26,0.36-0.36,0.67-0.41,1.08c-0.05,0.41-0.15,1.85-0.15,1.85h-1.25v16.18
			c0.56,0,1.15,0,1.15,0s0.05,1.39,0.05,1.8s0.51,1.08,0.72,1.54c0.21,0.46,0.57,1.03,0.82,1.18c0.26,0.15,1.59,0.82,2,0.92
			c0.41,0.1,1.9,0.1,1.9,0.1v1.21h16.16l-0.03-1.1c0,0,1.28-0.05,1.95-0.21s1.7-0.77,2-0.92c0.31-0.15,0.57-0.51,0.72-0.87
			c0.15-0.36,0.46-1.18,0.57-1.64c0.1-0.46,0.26-1.75,0.26-1.75h1.28V38.92L63.67,38.95z"/>
		<path class="st0" d="M85.04,38.18c-0.2-0.95-0.41-1.08-0.92-1.08c-0.51,0-1.44,0-1.8,0c-0.36,0-0.67-0.31-0.98-0.77
			c-0.31-0.46-0.61-0.98-1.13-0.98c-0.62,0-10.22,0-10.64,0c-0.41,0-0.57,0.41-0.77,0.92c-0.21,0.51-0.36,0.72-0.41,1.08
			c-0.05,0.36,0,0.62,0,0.62l-0.82,0.98l-0.57-0.77l-0.08,0.09v17l0.08,0.01l0.36,0.67l0.67-0.72c0,0,0.15,1.18,0.15,1.49
			c0,0.31,0.67,1.23,0.77,1.49c0.1,0.26,0.36,0.62,0.77,0.62c0.41,0,9.86-0.05,10.33-0.05c0.46,0,0.67-0.15,0.93-0.46
			c0.26-0.31,0.67-1.23,1.08-1.23c0.41,0,1.54,0,2,0c0.46,0,0.87-0.46,1.03-1.85c0.15-1.39,0.31-5.24,0.31-7.76
			C85.4,44.95,85.3,39.41,85.04,38.18z"/>
		<path class="st0" d="M32.99,38.64l-0.46-0.67l-0.31,0.15c0,0-0.21-0.87-0.26-1.23c-0.05-0.36-0.72-1.9-1.08-1.9
			c-0.36,0-11.2,0-11.56,0c-0.36,0-0.62,0.67-0.72,0.98c-0.1,0.31-0.31,0.82-0.31,0.82s-1.85,0-2.26,0c-0.41,0-0.82,0.36-0.98,1.95
			c-0.15,1.59-0.46,4.78-0.46,7.65s0.36,8.17,0.46,9.04c0.1,0.87,0.62,1.54,0.93,1.54c0.31,0,2.31,0,2.31,0s0.21,0.67,0.31,0.92
			c0.1,0.26,0.15,0.67,0.51,0.67c0.36,0,10.99,0.15,11.3,0.15c0.31,0,0.72-0.1,0.87-0.46c0.15-0.36,0.57-1.08,0.67-1.49
			s0.21-1.34,0.21-1.34l0.1-0.36l0.51,0.67l0.32-0.32V38.55L32.99,38.64z"/>
	</g>
</g>
</svg>
