<?xml version="1.0" encoding="utf-8"?>
<!-- Generator: Adobe Illustrator 24.0.2, SVG Export Plug-In . SVG Version: 6.00 Build 0)  -->
<svg version="1.1" id="Layer_1" xmlns="http://www.w3.org/2000/svg" xmlns:xlink="http://www.w3.org/1999/xlink" x="0px" y="0px"
	 viewBox="0 0 100 100" style="enable-background:new 0 0 100 100;" xml:space="preserve">
<style type="text/css">
	.st0{fill:#00599C;}
</style>
<g>
	<path class="st0" d="M49.81,20.4c-16.34,0-29.59,13.25-29.59,29.59s13.25,29.59,29.59,29.59c16.34,0,29.59-13.25,29.59-29.59
		S66.15,20.4,49.81,20.4z M70.31,45c-2.84,1.64-6.46,0.67-8.1-2.17c-1.64-2.84-0.67-6.46,2.17-8.1c2.84-1.64,6.46-0.67,8.1,2.17
		C74.12,39.74,73.15,43.36,70.31,45z M49.81,59.69c-5.35,0-9.7-4.35-9.7-9.7c0-5.35,4.35-9.7,9.7-9.7s9.7,4.35,9.7,9.7
		C59.51,55.34,55.15,59.69,49.81,59.69z M49.81,23.81c3.28,0,5.93,2.66,5.93,5.93c0,3.28-2.66,5.93-5.93,5.93
		c-3.28,0-5.93-2.66-5.93-5.93C43.87,26.46,46.53,23.81,49.81,23.81z M35.37,34.6c2.82,1.66,3.76,5.3,2.1,8.12s-5.3,3.76-8.12,2.1
		c-2.82-1.66-3.76-5.3-2.1-8.12C28.91,33.88,32.54,32.94,35.37,34.6z M29.3,54.99c2.84-1.64,6.46-0.67,8.1,2.17s0.67,6.46-2.17,8.1
		c-2.84,1.64-6.46,0.67-8.1-2.17C25.49,60.25,26.46,56.62,29.3,54.99z M43.87,70.25c0-3.28,2.66-5.93,5.93-5.93
		c3.28,0,5.93,2.66,5.93,5.93c0,3.28-2.66,5.93-5.93,5.93C46.53,76.18,43.87,73.53,43.87,70.25z M64.25,65.39
		c-2.82-1.66-3.76-5.3-2.1-8.12s5.3-3.76,8.12-2.1c2.82,1.66,3.76,5.3,2.1,8.12C70.7,66.11,67.07,67.05,64.25,65.39z"/>
	<path class="st0" d="M50,1C22.98,1,1,22.98,1,50c0,27.02,21.98,49,49,49c27.03,0,49-21.98,49-49C99,22.98,77.03,1,50,1 M50,91.18
		C27.28,91.18,8.81,72.71,8.81,50C8.81,27.29,27.28,8.82,50,8.82S91.18,27.29,91.18,50C91.18,72.71,72.72,91.18,50,91.18"/>
</g>
</svg>
