<?xml version="1.0" encoding="utf-8"?>
<!-- Generator: Adobe Illustrator 24.0.2, SVG Export Plug-In . SVG Version: 6.00 Build 0)  -->
<svg version="1.1" id="Layer_1" xmlns="http://www.w3.org/2000/svg" xmlns:xlink="http://www.w3.org/1999/xlink" x="0px" y="0px"
	 viewBox="0 0 100 100" style="enable-background:new 0 0 100 100;" xml:space="preserve">
<style type="text/css">
	.st0{fill:#00599C;}
</style>
<g>
	<path class="st0" d="M34.64,34.05c-0.27-0.09-0.55-0.16-0.85-0.16c-1.41,0-2.56,1.15-2.56,2.56c0,1.41,1.15,2.56,2.56,2.56
		c1.41,0,2.56-1.15,2.56-2.56c0-0.57-0.2-1.1-0.52-1.53l2.27-3.16l0.3-1.7L36.9,30.9L34.64,34.05z"/>
	<path class="st0" d="M99,50C99,23.01,77.06,1.04,50.08,1h-0.13C22.95,1.04,1.01,22.99,1,49.98v0.04C1.01,77.03,22.98,99,50.01,99
		C77.03,99,99,77.02,99,50z M50.01,91.19C27.29,91.19,8.8,72.71,8.8,50c0-22.71,18.49-41.19,41.21-41.19
		c22.71,0,41.18,18.48,41.18,41.19C91.19,72.71,72.72,91.19,50.01,91.19z"/>
	<path class="st0" d="M55.64,31.42v11.9h8.35v-7.13l18.19-7.88c-1.16-1.71-2.45-3.32-3.86-4.82L60,31.42H55.64z"/>
	<path class="st0" d="M71.9,82.04v-9.6h0.3c1.2,0,2.18-0.97,2.18-2.18V49.68c0-1.2-0.97-2.18-2.18-2.18h-3.19v-1.01
		c0-1.03-0.84-1.87-1.87-1.87H52.78c-1.03,0-1.87,0.84-1.87,1.87v1.01h-3.09c-1.2,0-2.18,0.97-2.18,2.18v9.9h-8.22v-9.01
		c6.3-1.61,10.97-7.32,10.97-14.12c0-8.06-6.53-14.59-14.59-14.59S19.2,28.39,19.2,36.45c0,6.83,4.7,12.55,11.03,14.14v8.99h-0.65
		v7.18h0.65v0.6h7.18v-0.6h8.22v3.49c0,1.2,0.97,2.18,2.18,2.18h0.54v16.34c0.55,0.02,1.1,0.04,1.66,0.04
		C58.12,88.82,65.66,86.31,71.9,82.04z M33.8,46.74c-5.67,0-10.28-4.61-10.28-10.28c0-5.67,4.61-10.28,10.28-10.28
		s10.28,4.61,10.28,10.28C44.08,42.12,39.47,46.74,33.8,46.74z"/>
</g>
</svg>
