<?xml version="1.0" encoding="utf-8"?>
<!-- Generator: Adobe Illustrator 24.0.2, SVG Export Plug-In . SVG Version: 6.00 Build 0)  -->
<svg version="1.1" id="Layer_1" xmlns="http://www.w3.org/2000/svg" xmlns:xlink="http://www.w3.org/1999/xlink" x="0px" y="0px"
	 viewBox="0 0 100 100" style="enable-background:new 0 0 100 100;" xml:space="preserve">
<style type="text/css">
	.st0{fill:#00599C;}
</style>
<g>
	<path class="st0" d="M1,50.01C1,77.02,22.99,99,49.99,99c27.01,0,49-21.98,49-48.99C99,22.99,77.01,1,49.99,1
		C22.99,1,1,22.99,1,50.01z M8.37,50.01c0-22.97,18.66-41.65,41.62-41.65c22.96,0,41.64,18.68,41.64,41.65
		c0,22.96-18.68,41.64-41.64,41.64C27.04,91.65,8.37,72.97,8.37,50.01z"/>
	<path class="st0" d="M29.05,22.96c0.08-1.21,5.79-1.81,6.93,0c0,4.56-0.08,38.12-0.08,39.93c0,1.83,1.14,8.01,8.24,8.01
		c7.05,0,25.54,0,25.54,0c0.91,0.23,2.75,3.87,0.24,7.29h-41.1L29.05,22.96z"/>
</g>
</svg>
