<?xml version="1.0" encoding="utf-8"?>
<!-- Generator: Adobe Illustrator 24.0.2, SVG Export Plug-In . SVG Version: 6.00 Build 0)  -->
<svg version="1.1" id="Layer_1" xmlns="http://www.w3.org/2000/svg" xmlns:xlink="http://www.w3.org/1999/xlink" x="0px" y="0px"
	 viewBox="0 0 100 100" style="enable-background:new 0 0 100 100;" xml:space="preserve">
<style type="text/css">
	.st0{fill:#00599C;}
</style>
<g>
	<polygon class="st0" points="81.97,39.2 60.79,39.2 60.79,17.99 39.2,17.99 39.2,39.2 18.01,39.2 18.01,60.79 39.2,60.79 
		39.2,82.01 60.79,82.01 60.79,60.79 81.97,60.79 	"/>
	<path class="st0" d="M1,49.98C1,77.01,22.99,99,50,99c27.02,0,49-21.99,49-49.02C99,22.97,77.02,1,50,1C22.99,1,1,22.97,1,49.98z
		 M8.36,49.98C8.36,27.03,27.03,8.35,50,8.35c22.98,0,41.65,18.69,41.65,41.64c0,22.98-18.67,41.67-41.65,41.67
		C27.03,91.65,8.36,72.97,8.36,49.98z"/>
</g>
</svg>
