<?xml version="1.0" encoding="utf-8"?>
<!-- Generator: Adobe Illustrator 24.0.2, SVG Export Plug-In . SVG Version: 6.00 Build 0)  -->
<svg version="1.1" id="Layer_1" xmlns="http://www.w3.org/2000/svg" xmlns:xlink="http://www.w3.org/1999/xlink" x="0px" y="0px"
	 viewBox="0 0 100 100" style="enable-background:new 0 0 100 100;" xml:space="preserve">
<style type="text/css">
	.st0{fill:#00599C;}
</style>
<g>
	<g>
		<path class="st0" d="M70.25,39.12H29.75c-1.75,0-3.17,1.42-3.17,3.17v30.89c0,1.75,1.42,3.17,3.17,3.17h40.51
			c1.75,0,3.17-1.42,3.17-3.17V42.3C73.43,40.54,72.01,39.12,70.25,39.12z M54.32,69.36h-8.59l1.1-12.52
			c-1.59-1.04-2.64-2.83-2.64-4.86c0-3.21,2.6-5.81,5.81-5.81c3.21,0,5.81,2.6,5.81,5.81c0,2.02-1.03,3.8-2.59,4.84L54.32,69.36z"/>
		<path class="st0" d="M39.64,32.12c0-5.71,4.65-10.36,10.36-10.36s10.36,4.65,10.36,10.36v4.67h5.88v-4.67
			c0-8.97-7.27-16.24-16.24-16.24s-16.24,7.27-16.24,16.24v4.67h5.88V32.12z"/>
	</g>
	<path class="st0" d="M50,1C22.98,1,1,22.98,1,49.99C1,77.02,22.98,99,50,99s49-21.98,49-49.01C99,22.98,77.02,1,50,1z M50,91.65
		c-22.96,0-41.65-18.69-41.65-41.66C8.35,27.03,27.04,8.35,50,8.35c22.97,0,41.65,18.68,41.65,41.64
		C91.65,72.96,72.97,91.65,50,91.65z"/>
</g>
</svg>
