<?xml version="1.0" encoding="utf-8"?>
<!-- Generator: Adobe Illustrator 24.0.2, SVG Export Plug-In . SVG Version: 6.00 Build 0)  -->
<svg version="1.1" id="Layer_1" xmlns="http://www.w3.org/2000/svg" xmlns:xlink="http://www.w3.org/1999/xlink" x="0px" y="0px"
	 viewBox="0 0 100 100" style="enable-background:new 0 0 100 100;" xml:space="preserve">
<style type="text/css">
	.st0{fill:#00599C;}
</style>
<g>
	<path class="st0" d="M78.94,67.07l-2.93-2.98c-0.73-0.71-1.77-0.9-2.7-0.67c-1.74-1.25-3.3-2.68-4.75-4.25
		c-0.32-3.15-0.18-8.18,1.29-10.02c-5.88-6.91-25.28-21.22-50.33-25.33l-0.26,2.32c6.87,3.32,18.66,12.01,25.83,21.22L38.93,58.1
		l1.58,1.58c-0.03,0.03-0.07,0.06-0.1,0.08L16.98,83.31l8.5,8.49L48.49,68c0.05-0.05,0.47,0.2,0.5,0.16l1.7,1.7
		c2.01-1.72,4.32-2.88,6.5-3.25c2.48,1.81,4.63,3.96,6.42,6.5c-0.24,0.95-0.07,1.96,0.68,2.71l2.94,2.94c1.1,1.11,2.92,1.11,4.02,0
		l7.68-7.71C80.04,69.95,80.04,68.17,78.94,67.07z"/>
	<path class="st0" d="M1,50.01C1,77.02,22.99,99,50.01,99C77.01,99,99,77.02,99,50.01C99,22.97,77.01,1,50.01,1
		C22.99,1,1,22.97,1,50.01z M8.38,50.01c0-22.97,18.66-41.65,41.63-41.65c22.98,0,41.64,18.68,41.64,41.65
		c0,22.96-18.66,41.65-41.64,41.65C27.04,91.66,8.38,72.97,8.38,50.01z"/>
</g>
</svg>
