<?xml version="1.0" encoding="utf-8"?>
<!-- Generator: Adobe Illustrator 24.0.2, SVG Export Plug-In . SVG Version: 6.00 Build 0)  -->
<svg version="1.1" id="Layer_1" xmlns="http://www.w3.org/2000/svg" xmlns:xlink="http://www.w3.org/1999/xlink" x="0px" y="0px"
	 viewBox="0 0 100 100" style="enable-background:new 0 0 100 100;" xml:space="preserve">
<style type="text/css">
	.st0{fill:#00599C;}
</style>
<g>
	<path class="st0" d="M1,49.97C1,76.99,22.98,99,50,99c27.02,0,49-22.01,49-49.03C99,22.97,77.01,1,50,1C22.98,1,1,22.97,1,49.97z
		 M8.37,49.97C8.37,27.02,27.03,8.35,50,8.35c22.97,0,41.63,18.67,41.63,41.63c0,22.99-18.66,41.69-41.63,41.69
		C27.03,91.66,8.37,72.96,8.37,49.97z"/>
	<path class="st0" d="M66.86,65.03l0.24-6.74c0.04-1.08-0.59-1.95-1.51-2.47l-0.19-2.16c-0.64-8.71-1.7-13.49-16.84-21.33
		c1.18-3.64-0.72-7.98-4.69-10.17L27.49,12.6c-4.42-2.5-8.26-0.05-10.43,3.81c-2.15,3.83-8.32,4.86-3.89,7.38l22.92,12.22
		c3.83,2.16,8.37,1.61,10.88-1.04c14.46,7.47,14.79,11.41,15.34,18.92l0.17,1.96c-0.84,0.48-1.43,1.27-1.48,2.22l-0.27,6.74
		c-0.03,0.98,0.52,1.81,1.33,2.34c-1.03,6.3-0.6,18.1,0.77,23.43L64,90.6c0.67-3.71,1.85-18.53,1.66-23.5
		C66.35,66.62,66.82,65.9,66.86,65.03z"/>
	<path class="st0" d="M53.46,81c-2.43-7.33-6.55-5.7-8.81-5.77c6.33-0.22,9.78,16.21,17.48,16.05C57.68,90.18,55.92,88.31,53.46,81z
		"/>
	<path class="st0" d="M66.15,88.66c2.99-6.74,7.26-9.56,9.31-10.92C70.08,79.44,67.66,83.39,66.15,88.66z"/>
	<path class="st0" d="M61.4,89.2c-2.63-8.03-3.05-13.03-7.57-16.07c0.96,2.89,1.67,5.65,3.6,8.7C59.32,84.85,60.69,86.09,61.4,89.2z
		"/>
</g>
</svg>
